<svg width="330" height="100" viewBox="0 0 330 100" fill="none" xmlns="http://www.w3.org/2000/svg">
<rect width="250" height="80" rx="15" fill="url(#paint0_linear_1_160)"/>
<path d="M22.982 15.939V25H21.799V20.892H17.184V25H16.001V15.939H17.184V19.917H21.799V15.939H22.982ZM25.613 16.719C25.3876 16.719 25.197 16.641 25.041 16.485C24.885 16.329 24.807 16.1383 24.807 15.913C24.807 15.6877 24.885 15.497 25.041 15.341C25.197 15.185 25.3876 15.107 25.613 15.107C25.8296 15.107 26.0116 15.185 26.159 15.341C26.315 15.497 26.393 15.6877 26.393 15.913C26.393 16.1383 26.315 16.329 26.159 16.485C26.0116 16.641 25.8296 16.719 25.613 16.719ZM26.185 17.876V25H25.002V17.876H26.185ZM34.54 25.091C33.942 25.091 33.4047 24.987 32.928 24.779C32.46 24.5623 32.0917 24.2677 31.823 23.895C31.5543 23.5137 31.4157 23.076 31.407 22.582H32.668C32.7113 23.0067 32.8847 23.3663 33.188 23.661C33.5 23.947 33.9507 24.09 34.54 24.09C35.1033 24.09 35.5453 23.9513 35.866 23.674C36.1953 23.388 36.36 23.024 36.36 22.582C36.36 22.2353 36.2647 21.9537 36.074 21.737C35.8833 21.5203 35.645 21.3557 35.359 21.243C35.073 21.1303 34.6873 21.009 34.202 20.879C33.604 20.723 33.123 20.567 32.759 20.411C32.4037 20.255 32.096 20.0123 31.836 19.683C31.5847 19.345 31.459 18.8943 31.459 18.331C31.459 17.837 31.5847 17.3993 31.836 17.018C32.0873 16.6367 32.4383 16.342 32.889 16.134C33.3483 15.926 33.8727 15.822 34.462 15.822C35.3113 15.822 36.0047 16.0343 36.542 16.459C37.088 16.8837 37.3957 17.447 37.465 18.149H36.165C36.1217 17.8023 35.9397 17.499 35.619 17.239C35.2983 16.9703 34.8737 16.836 34.345 16.836C33.851 16.836 33.448 16.966 33.136 17.226C32.824 17.4773 32.668 17.8327 32.668 18.292C32.668 18.6213 32.759 18.89 32.941 19.098C33.1317 19.306 33.3613 19.4663 33.63 19.579C33.9073 19.683 34.293 19.8043 34.787 19.943C35.385 20.1077 35.866 20.2723 36.23 20.437C36.594 20.593 36.906 20.84 37.166 21.178C37.426 21.5073 37.556 21.958 37.556 22.53C37.556 22.972 37.439 23.388 37.205 23.778C36.971 24.168 36.6243 24.4843 36.165 24.727C35.7057 24.9697 35.164 25.091 34.54 25.091ZM38.8549 21.412C38.8549 20.684 39.0022 20.047 39.2969 19.501C39.5916 18.9463 39.9946 18.5173 40.5059 18.214C41.0259 17.9107 41.6022 17.759 42.2349 17.759C42.8589 17.759 43.4006 17.8933 43.8599 18.162C44.3192 18.4307 44.6616 18.7687 44.8869 19.176V17.876H46.0829V25H44.8869V23.674C44.6529 24.09 44.3019 24.4367 43.8339 24.714C43.3746 24.9827 42.8372 25.117 42.2219 25.117C41.5892 25.117 41.0172 24.961 40.5059 24.649C39.9946 24.337 39.5916 23.8993 39.2969 23.336C39.0022 22.7727 38.8549 22.1313 38.8549 21.412ZM44.8869 21.425C44.8869 20.8877 44.7786 20.4197 44.5619 20.021C44.3452 19.6223 44.0506 19.319 43.6779 19.111C43.3139 18.8943 42.9109 18.786 42.4689 18.786C42.0269 18.786 41.6239 18.89 41.2599 19.098C40.8959 19.306 40.6056 19.6093 40.3889 20.008C40.1722 20.4067 40.0639 20.8747 40.0639 21.412C40.0639 21.958 40.1722 22.4347 40.3889 22.842C40.6056 23.2407 40.8959 23.5483 41.2599 23.765C41.6239 23.973 42.0269 24.077 42.4689 24.077C42.9109 24.077 43.3139 23.973 43.6779 23.765C44.0506 23.5483 44.3452 23.2407 44.5619 22.842C44.7786 22.4347 44.8869 21.9623 44.8869 21.425ZM56.6491 17.746C57.2037 17.746 57.6977 17.863 58.1311 18.097C58.5644 18.3223 58.9067 18.6647 59.1581 19.124C59.4094 19.5833 59.5351 20.1423 59.5351 20.801V25H58.3651V20.97C58.3651 20.2593 58.1874 19.7177 57.8321 19.345C57.4854 18.9637 57.0131 18.773 56.4151 18.773C55.7997 18.773 55.3101 18.9723 54.9461 19.371C54.5821 19.761 54.4001 20.3287 54.4001 21.074V25H53.2301V20.97C53.2301 20.2593 53.0524 19.7177 52.6971 19.345C52.3504 18.9637 51.8781 18.773 51.2801 18.773C50.6647 18.773 50.1751 18.9723 49.8111 19.371C49.4471 19.761 49.2651 20.3287 49.2651 21.074V25H48.0821V17.876H49.2651V18.903C49.4991 18.5303 49.8111 18.2443 50.2011 18.045C50.5997 17.8457 51.0374 17.746 51.5141 17.746C52.1121 17.746 52.6407 17.8803 53.1001 18.149C53.5594 18.4177 53.9017 18.812 54.1271 19.332C54.3264 18.8293 54.6557 18.4393 55.1151 18.162C55.5744 17.8847 56.0857 17.746 56.6491 17.746ZM63.0096 15.939L62.8666 22.439H61.8786L61.7356 15.939H63.0096ZM62.4246 25.078C62.1993 25.078 62.0086 25 61.8526 24.844C61.6966 24.688 61.6186 24.4973 61.6186 24.272C61.6186 24.0467 61.6966 23.856 61.8526 23.7C62.0086 23.544 62.1993 23.466 62.4246 23.466C62.6413 23.466 62.8233 23.544 62.9706 23.7C63.1266 23.856 63.2046 24.0467 63.2046 24.272C63.2046 24.4973 63.1266 24.688 62.9706 24.844C62.8233 25 62.6413 25.078 62.4246 25.078ZM69.9965 15.939V25H68.8135V15.939H69.9965ZM75.0365 21.412C75.0365 20.684 75.1839 20.047 75.4785 19.501C75.7732 18.9463 76.1762 18.5173 76.6875 18.214C77.2075 17.9107 77.7839 17.759 78.4165 17.759C79.0405 17.759 79.5822 17.8933 80.0415 18.162C80.5009 18.4307 80.8432 18.7687 81.0685 19.176V17.876H82.2645V25H81.0685V23.674C80.8345 24.09 80.4835 24.4367 80.0155 24.714C79.5562 24.9827 79.0189 25.117 78.4035 25.117C77.7709 25.117 77.1989 24.961 76.6875 24.649C76.1762 24.337 75.7732 23.8993 75.4785 23.336C75.1839 22.7727 75.0365 22.1313 75.0365 21.412ZM81.0685 21.425C81.0685 20.8877 80.9602 20.4197 80.7435 20.021C80.5269 19.6223 80.2322 19.319 79.8595 19.111C79.4955 18.8943 79.0925 18.786 78.6505 18.786C78.2085 18.786 77.8055 18.89 77.4415 19.098C77.0775 19.306 76.7872 19.6093 76.5705 20.008C76.3539 20.4067 76.2455 20.8747 76.2455 21.412C76.2455 21.958 76.3539 22.4347 76.5705 22.842C76.7872 23.2407 77.0775 23.5483 77.4415 23.765C77.8055 23.973 78.2085 24.077 78.6505 24.077C79.0925 24.077 79.4955 23.973 79.8595 23.765C80.2322 23.5483 80.5269 23.2407 80.7435 22.842C80.9602 22.4347 81.0685 21.9623 81.0685 21.425ZM92.8307 17.746C93.3854 17.746 93.8794 17.863 94.3127 18.097C94.746 18.3223 95.0884 18.6647 95.3397 19.124C95.591 19.5833 95.7167 20.1423 95.7167 20.801V25H94.5467V20.97C94.5467 20.2593 94.369 19.7177 94.0137 19.345C93.667 18.9637 93.1947 18.773 92.5967 18.773C91.9814 18.773 91.4917 18.9723 91.1277 19.371C90.7637 19.761 90.5817 20.3287 90.5817 21.074V25H89.4117V20.97C89.4117 20.2593 89.234 19.7177 88.8787 19.345C88.532 18.9637 88.0597 18.773 87.4617 18.773C86.8464 18.773 86.3567 18.9723 85.9927 19.371C85.6287 19.761 85.4467 20.3287 85.4467 21.074V25H84.2637V17.876H85.4467V18.903C85.6807 18.5303 85.9927 18.2443 86.3827 18.045C86.7814 17.8457 87.219 17.746 87.6957 17.746C88.2937 17.746 88.8224 17.8803 89.2817 18.149C89.741 18.4177 90.0834 18.812 90.3087 19.332C90.508 18.8293 90.8374 18.4393 91.2967 18.162C91.756 17.8847 92.2674 17.746 92.8307 17.746ZM107.259 17.876L102.969 28.354H101.747L103.151 24.922L100.278 17.876H101.591L103.827 23.648L106.037 17.876H107.259ZM111.555 25.117C110.888 25.117 110.281 24.9653 109.735 24.662C109.198 24.3587 108.773 23.9297 108.461 23.375C108.158 22.8117 108.006 22.1617 108.006 21.425C108.006 20.697 108.162 20.0557 108.474 19.501C108.795 18.9377 109.228 18.5087 109.774 18.214C110.32 17.9107 110.931 17.759 111.607 17.759C112.283 17.759 112.894 17.9107 113.44 18.214C113.986 18.5087 114.415 18.9333 114.727 19.488C115.048 20.0427 115.208 20.6883 115.208 21.425C115.208 22.1617 115.044 22.8117 114.714 23.375C114.394 23.9297 113.956 24.3587 113.401 24.662C112.847 24.9653 112.231 25.117 111.555 25.117ZM111.555 24.077C111.98 24.077 112.379 23.9773 112.751 23.778C113.124 23.5787 113.423 23.2797 113.648 22.881C113.882 22.4823 113.999 21.997 113.999 21.425C113.999 20.853 113.887 20.3677 113.661 19.969C113.436 19.5703 113.141 19.2757 112.777 19.085C112.413 18.8857 112.019 18.786 111.594 18.786C111.161 18.786 110.762 18.8857 110.398 19.085C110.043 19.2757 109.757 19.5703 109.54 19.969C109.324 20.3677 109.215 20.853 109.215 21.425C109.215 22.0057 109.319 22.4953 109.527 22.894C109.744 23.2927 110.03 23.5917 110.385 23.791C110.741 23.9817 111.131 24.077 111.555 24.077ZM123.082 17.876V25H121.899V23.947C121.673 24.311 121.357 24.597 120.95 24.805C120.551 25.0043 120.109 25.104 119.624 25.104C119.069 25.104 118.571 24.9913 118.129 24.766C117.687 24.532 117.336 24.1853 117.076 23.726C116.824 23.2667 116.699 22.7077 116.699 22.049V17.876H117.869V21.893C117.869 22.595 118.046 23.1367 118.402 23.518C118.757 23.8907 119.242 24.077 119.858 24.077C120.49 24.077 120.989 23.882 121.353 23.492C121.717 23.102 121.899 22.5343 121.899 21.789V17.876H123.082ZM126.262 19.033C126.47 18.6257 126.765 18.3093 127.146 18.084C127.536 17.8587 128.008 17.746 128.563 17.746V18.968H128.251C126.925 18.968 126.262 19.6873 126.262 21.126V25H125.079V17.876H126.262V19.033ZM134.578 19.189C134.812 18.7817 135.158 18.4437 135.618 18.175C136.086 17.8977 136.627 17.759 137.243 17.759C137.875 17.759 138.447 17.9107 138.959 18.214C139.479 18.5173 139.886 18.9463 140.181 19.501C140.475 20.047 140.623 20.684 140.623 21.412C140.623 22.1313 140.475 22.7727 140.181 23.336C139.886 23.8993 139.479 24.337 138.959 24.649C138.447 24.961 137.875 25.117 137.243 25.117C136.636 25.117 136.099 24.9827 135.631 24.714C135.171 24.4367 134.82 24.0943 134.578 23.687V28.38H133.395V17.876H134.578V19.189ZM139.414 21.412C139.414 20.8747 139.305 20.4067 139.089 20.008C138.872 19.6093 138.577 19.306 138.205 19.098C137.841 18.89 137.438 18.786 136.996 18.786C136.562 18.786 136.159 18.8943 135.787 19.111C135.423 19.319 135.128 19.6267 134.903 20.034C134.686 20.4327 134.578 20.8963 134.578 21.425C134.578 21.9623 134.686 22.4347 134.903 22.842C135.128 23.2407 135.423 23.5483 135.787 23.765C136.159 23.973 136.562 24.077 136.996 24.077C137.438 24.077 137.841 23.973 138.205 23.765C138.577 23.5483 138.872 23.2407 139.089 22.842C139.305 22.4347 139.414 21.958 139.414 21.412ZM148.68 21.165C148.68 21.3903 148.667 21.6287 148.641 21.88H142.947C142.99 22.582 143.228 23.1323 143.662 23.531C144.104 23.921 144.637 24.116 145.261 24.116C145.772 24.116 146.197 23.999 146.535 23.765C146.881 23.5223 147.124 23.2017 147.263 22.803H148.537C148.346 23.4877 147.965 24.0467 147.393 24.48C146.821 24.9047 146.11 25.117 145.261 25.117C144.585 25.117 143.978 24.9653 143.441 24.662C142.912 24.3587 142.496 23.9297 142.193 23.375C141.889 22.8117 141.738 22.1617 141.738 21.425C141.738 20.6883 141.885 20.0427 142.18 19.488C142.474 18.9333 142.886 18.5087 143.415 18.214C143.952 17.9107 144.567 17.759 145.261 17.759C145.937 17.759 146.535 17.9063 147.055 18.201C147.575 18.4957 147.973 18.903 148.251 19.423C148.537 19.9343 148.68 20.515 148.68 21.165ZM147.458 20.918C147.458 20.4673 147.358 20.0817 147.159 19.761C146.959 19.4317 146.686 19.1847 146.34 19.02C146.002 18.8467 145.625 18.76 145.209 18.76C144.611 18.76 144.099 18.9507 143.675 19.332C143.259 19.7133 143.02 20.242 142.96 20.918H147.458ZM151.424 19.033C151.632 18.6257 151.927 18.3093 152.308 18.084C152.698 17.8587 153.171 17.746 153.725 17.746V18.968H153.413C152.087 18.968 151.424 19.6873 151.424 21.126V25H150.241V17.876H151.424V19.033ZM157.613 25.117C157.067 25.117 156.577 25.026 156.144 24.844C155.711 24.6533 155.368 24.3933 155.117 24.064C154.866 23.726 154.727 23.3403 154.701 22.907H155.923C155.958 23.2623 156.122 23.5527 156.417 23.778C156.72 24.0033 157.115 24.116 157.6 24.116C158.051 24.116 158.406 24.0163 158.666 23.817C158.926 23.6177 159.056 23.3663 159.056 23.063C159.056 22.751 158.917 22.5213 158.64 22.374C158.363 22.218 157.934 22.0663 157.353 21.919C156.824 21.7803 156.391 21.6417 156.053 21.503C155.724 21.3557 155.438 21.1433 155.195 20.866C154.961 20.58 154.844 20.2073 154.844 19.748C154.844 19.384 154.952 19.0503 155.169 18.747C155.386 18.4437 155.693 18.2053 156.092 18.032C156.491 17.85 156.946 17.759 157.457 17.759C158.246 17.759 158.883 17.9583 159.368 18.357C159.853 18.7557 160.113 19.3017 160.148 19.995H158.965C158.939 19.6223 158.787 19.3233 158.51 19.098C158.241 18.8727 157.877 18.76 157.418 18.76C156.993 18.76 156.655 18.851 156.404 19.033C156.153 19.215 156.027 19.4533 156.027 19.748C156.027 19.982 156.101 20.177 156.248 20.333C156.404 20.4803 156.595 20.6017 156.82 20.697C157.054 20.7837 157.375 20.8833 157.782 20.996C158.293 21.1347 158.709 21.2733 159.03 21.412C159.351 21.542 159.624 21.7413 159.849 22.01C160.083 22.2787 160.204 22.6297 160.213 23.063C160.213 23.453 160.105 23.804 159.888 24.116C159.671 24.428 159.364 24.675 158.965 24.857C158.575 25.0303 158.124 25.117 157.613 25.117ZM164.99 25.117C164.323 25.117 163.716 24.9653 163.17 24.662C162.633 24.3587 162.208 23.9297 161.896 23.375C161.593 22.8117 161.441 22.1617 161.441 21.425C161.441 20.697 161.597 20.0557 161.909 19.501C162.23 18.9377 162.663 18.5087 163.209 18.214C163.755 17.9107 164.366 17.759 165.042 17.759C165.718 17.759 166.329 17.9107 166.875 18.214C167.421 18.5087 167.85 18.9333 168.162 19.488C168.483 20.0427 168.643 20.6883 168.643 21.425C168.643 22.1617 168.478 22.8117 168.149 23.375C167.828 23.9297 167.391 24.3587 166.836 24.662C166.281 24.9653 165.666 25.117 164.99 25.117ZM164.99 24.077C165.415 24.077 165.813 23.9773 166.186 23.778C166.559 23.5787 166.858 23.2797 167.083 22.881C167.317 22.4823 167.434 21.997 167.434 21.425C167.434 20.853 167.321 20.3677 167.096 19.969C166.871 19.5703 166.576 19.2757 166.212 19.085C165.848 18.8857 165.454 18.786 165.029 18.786C164.596 18.786 164.197 18.8857 163.833 19.085C163.478 19.2757 163.192 19.5703 162.975 19.969C162.758 20.3677 162.65 20.853 162.65 21.425C162.65 22.0057 162.754 22.4953 162.962 22.894C163.179 23.2927 163.465 23.5917 163.82 23.791C164.175 23.9817 164.565 24.077 164.99 24.077ZM173.669 17.746C174.536 17.746 175.238 18.0103 175.775 18.539C176.313 19.059 176.581 19.813 176.581 20.801V25H175.411V20.97C175.411 20.2593 175.234 19.7177 174.878 19.345C174.523 18.9637 174.038 18.773 173.422 18.773C172.798 18.773 172.3 18.968 171.927 19.358C171.563 19.748 171.381 20.3157 171.381 21.061V25H170.198V17.876H171.381V18.89C171.615 18.526 171.932 18.2443 172.33 18.045C172.738 17.8457 173.184 17.746 173.669 17.746ZM178.072 21.412C178.072 20.684 178.219 20.047 178.514 19.501C178.808 18.9463 179.211 18.5173 179.723 18.214C180.243 17.9107 180.819 17.759 181.452 17.759C182.076 17.759 182.617 17.8933 183.077 18.162C183.536 18.4307 183.878 18.7687 184.104 19.176V17.876H185.3V25H184.104V23.674C183.87 24.09 183.519 24.4367 183.051 24.714C182.591 24.9827 182.054 25.117 181.439 25.117C180.806 25.117 180.234 24.961 179.723 24.649C179.211 24.337 178.808 23.8993 178.514 23.336C178.219 22.7727 178.072 22.1313 178.072 21.412ZM184.104 21.425C184.104 20.8877 183.995 20.4197 183.779 20.021C183.562 19.6223 183.267 19.319 182.895 19.111C182.531 18.8943 182.128 18.786 181.686 18.786C181.244 18.786 180.841 18.89 180.477 19.098C180.113 19.306 179.822 19.6093 179.606 20.008C179.389 20.4067 179.281 20.8747 179.281 21.412C179.281 21.958 179.389 22.4347 179.606 22.842C179.822 23.2407 180.113 23.5483 180.477 23.765C180.841 23.973 181.244 24.077 181.686 24.077C182.128 24.077 182.531 23.973 182.895 23.765C183.267 23.5483 183.562 23.2407 183.779 22.842C183.995 22.4347 184.104 21.9623 184.104 21.425ZM188.482 15.38V25H187.299V15.38H188.482ZM18.523 45.117C17.977 45.117 17.4873 45.026 17.054 44.844C16.6207 44.6533 16.2783 44.3933 16.027 44.064C15.7757 43.726 15.637 43.3403 15.611 42.907H16.833C16.8677 43.2623 17.0323 43.5527 17.327 43.778C17.6303 44.0033 18.0247 44.116 18.51 44.116C18.9607 44.116 19.316 44.0163 19.576 43.817C19.836 43.6177 19.966 43.3663 19.966 43.063C19.966 42.751 19.8273 42.5213 19.55 42.374C19.2727 42.218 18.8437 42.0663 18.263 41.919C17.7343 41.7803 17.301 41.6417 16.963 41.503C16.6337 41.3557 16.3477 41.1433 16.105 40.866C15.871 40.58 15.754 40.2073 15.754 39.748C15.754 39.384 15.8623 39.0503 16.079 38.747C16.2957 38.4437 16.6033 38.2053 17.002 38.032C17.4007 37.85 17.8557 37.759 18.367 37.759C19.1557 37.759 19.7927 37.9583 20.278 38.357C20.7633 38.7557 21.0233 39.3017 21.058 39.995H19.875C19.849 39.6223 19.6973 39.3233 19.42 39.098C19.1513 38.8727 18.7873 38.76 18.328 38.76C17.9033 38.76 17.5653 38.851 17.314 39.033C17.0627 39.215 16.937 39.4533 16.937 39.748C16.937 39.982 17.0107 40.177 17.158 40.333C17.314 40.4803 17.5047 40.6017 17.73 40.697C17.964 40.7837 18.2847 40.8833 18.692 40.996C19.2033 41.1347 19.6193 41.2733 19.94 41.412C20.2607 41.542 20.5337 41.7413 20.759 42.01C20.993 42.2787 21.1143 42.6297 21.123 43.063C21.123 43.453 21.0147 43.804 20.798 44.116C20.5813 44.428 20.2737 44.675 19.875 44.857C19.485 45.0303 19.0343 45.117 18.523 45.117ZM26.329 37.746C26.8663 37.746 27.3517 37.863 27.785 38.097C28.2183 38.3223 28.5563 38.6647 28.799 39.124C29.0503 39.5833 29.176 40.1423 29.176 40.801V45H28.006V40.97C28.006 40.2593 27.8283 39.7177 27.473 39.345C27.1177 38.9637 26.6323 38.773 26.017 38.773C25.393 38.773 24.8947 38.968 24.522 39.358C24.158 39.748 23.976 40.3157 23.976 41.061V45H22.793V35.38H23.976V38.89C24.21 38.526 24.5307 38.2443 24.938 38.045C25.354 37.8457 25.8177 37.746 26.329 37.746ZM34.2154 45.117C33.5481 45.117 32.9414 44.9653 32.3954 44.662C31.8581 44.3587 31.4334 43.9297 31.1214 43.375C30.8181 42.8117 30.6664 42.1617 30.6664 41.425C30.6664 40.697 30.8224 40.0557 31.1344 39.501C31.4551 38.9377 31.8884 38.5087 32.4344 38.214C32.9804 37.9107 33.5914 37.759 34.2674 37.759C34.9434 37.759 35.5544 37.9107 36.1004 38.214C36.6464 38.5087 37.0754 38.9333 37.3874 39.488C37.7081 40.0427 37.8684 40.6883 37.8684 41.425C37.8684 42.1617 37.7038 42.8117 37.3744 43.375C37.0538 43.9297 36.6161 44.3587 36.0614 44.662C35.5068 44.9653 34.8914 45.117 34.2154 45.117ZM34.2154 44.077C34.6401 44.077 35.0388 43.9773 35.4114 43.778C35.7841 43.5787 36.0831 43.2797 36.3084 42.881C36.5424 42.4823 36.6594 41.997 36.6594 41.425C36.6594 40.853 36.5468 40.3677 36.3214 39.969C36.0961 39.5703 35.8014 39.2757 35.4374 39.085C35.0734 38.8857 34.6791 38.786 34.2544 38.786C33.8211 38.786 33.4224 38.8857 33.0584 39.085C32.7031 39.2757 32.4171 39.5703 32.2004 39.969C31.9838 40.3677 31.8754 40.853 31.8754 41.425C31.8754 42.0057 31.9794 42.4953 32.1874 42.894C32.4041 43.2927 32.6901 43.5917 33.0454 43.791C33.4008 43.9817 33.7908 44.077 34.2154 44.077ZM40.6069 39.189C40.8409 38.7817 41.1875 38.4437 41.6469 38.175C42.1149 37.8977 42.6565 37.759 43.2719 37.759C43.9045 37.759 44.4765 37.9107 44.9879 38.214C45.5079 38.5173 45.9152 38.9463 46.2099 39.501C46.5045 40.047 46.6519 40.684 46.6519 41.412C46.6519 42.1313 46.5045 42.7727 46.2099 43.336C45.9152 43.8993 45.5079 44.337 44.9879 44.649C44.4765 44.961 43.9045 45.117 43.2719 45.117C42.6652 45.117 42.1279 44.9827 41.6599 44.714C41.2005 44.4367 40.8495 44.0943 40.6069 43.687V48.38H39.4239V37.876H40.6069V39.189ZM45.4429 41.412C45.4429 40.8747 45.3345 40.4067 45.1179 40.008C44.9012 39.6093 44.6065 39.306 44.2339 39.098C43.8699 38.89 43.4669 38.786 43.0249 38.786C42.5915 38.786 42.1885 38.8943 41.8159 39.111C41.4519 39.319 41.1572 39.6267 40.9319 40.034C40.7152 40.4327 40.6069 40.8963 40.6069 41.425C40.6069 41.9623 40.7152 42.4347 40.9319 42.842C41.1572 43.2407 41.4519 43.5483 41.8159 43.765C42.1885 43.973 42.5915 44.077 43.0249 44.077C43.4669 44.077 43.8699 43.973 44.2339 43.765C44.6065 43.5483 44.9012 43.2407 45.1179 42.842C45.3345 42.4347 45.4429 41.958 45.4429 41.412ZM49.392 39.189C49.626 38.7817 49.9727 38.4437 50.432 38.175C50.9 37.8977 51.4417 37.759 52.057 37.759C52.6897 37.759 53.2617 37.9107 53.773 38.214C54.293 38.5173 54.7003 38.9463 54.995 39.501C55.2897 40.047 55.437 40.684 55.437 41.412C55.437 42.1313 55.2897 42.7727 54.995 43.336C54.7003 43.8993 54.293 44.337 53.773 44.649C53.2617 44.961 52.6897 45.117 52.057 45.117C51.4503 45.117 50.913 44.9827 50.445 44.714C49.9857 44.4367 49.6347 44.0943 49.392 43.687V48.38H48.209V37.876H49.392V39.189ZM54.228 41.412C54.228 40.8747 54.1197 40.4067 53.903 40.008C53.6863 39.6093 53.3917 39.306 53.019 39.098C52.655 38.89 52.252 38.786 51.81 38.786C51.3767 38.786 50.9737 38.8943 50.601 39.111C50.237 39.319 49.9423 39.6267 49.717 40.034C49.5003 40.4327 49.392 40.8963 49.392 41.425C49.392 41.9623 49.5003 42.4347 49.717 42.842C49.9423 43.2407 50.237 43.5483 50.601 43.765C50.9737 43.973 51.3767 44.077 51.81 44.077C52.252 44.077 52.655 43.973 53.019 43.765C53.3917 43.5483 53.6863 43.2407 53.903 42.842C54.1197 42.4347 54.228 41.958 54.228 41.412ZM57.6052 36.719C57.3798 36.719 57.1892 36.641 57.0332 36.485C56.8772 36.329 56.7992 36.1383 56.7992 35.913C56.7992 35.6877 56.8772 35.497 57.0332 35.341C57.1892 35.185 57.3798 35.107 57.6052 35.107C57.8218 35.107 58.0038 35.185 58.1512 35.341C58.3072 35.497 58.3852 35.6877 58.3852 35.913C58.3852 36.1383 58.3072 36.329 58.1512 36.485C58.0038 36.641 57.8218 36.719 57.6052 36.719ZM58.1772 37.876V45H56.9942V37.876H58.1772ZM63.6644 37.746C64.531 37.746 65.233 38.0103 65.7704 38.539C66.3077 39.059 66.5764 39.813 66.5764 40.801V45H65.4064V40.97C65.4064 40.2593 65.2287 39.7177 64.8734 39.345C64.518 38.9637 64.0327 38.773 63.4174 38.773C62.7934 38.773 62.295 38.968 61.9224 39.358C61.5584 39.748 61.3764 40.3157 61.3764 41.061V45H60.1934V37.876H61.3764V38.89C61.6104 38.526 61.9267 38.2443 62.3254 38.045C62.7327 37.8457 63.179 37.746 63.6644 37.746ZM71.4468 37.759C72.0621 37.759 72.5995 37.8933 73.0588 38.162C73.5268 38.4307 73.8735 38.7687 74.0988 39.176V37.876H75.2948V45.156C75.2948 45.806 75.1561 46.3823 74.8788 46.885C74.6015 47.3963 74.2028 47.795 73.6828 48.081C73.1715 48.367 72.5735 48.51 71.8888 48.51C70.9528 48.51 70.1728 48.289 69.5488 47.847C68.9248 47.405 68.5565 46.8027 68.4438 46.04H69.6138C69.7438 46.4733 70.0125 46.82 70.4198 47.08C70.8271 47.3487 71.3168 47.483 71.8888 47.483C72.5388 47.483 73.0675 47.2793 73.4748 46.872C73.8908 46.4647 74.0988 45.8927 74.0988 45.156V43.661C73.8648 44.077 73.5181 44.4237 73.0588 44.701C72.5995 44.9783 72.0621 45.117 71.4468 45.117C70.8141 45.117 70.2378 44.961 69.7178 44.649C69.2065 44.337 68.8035 43.8993 68.5088 43.336C68.2141 42.7727 68.0668 42.1313 68.0668 41.412C68.0668 40.684 68.2141 40.047 68.5088 39.501C68.8035 38.9463 69.2065 38.5173 69.7178 38.214C70.2378 37.9107 70.8141 37.759 71.4468 37.759ZM74.0988 41.425C74.0988 40.8877 73.9905 40.4197 73.7738 40.021C73.5571 39.6223 73.2625 39.319 72.8898 39.111C72.5258 38.8943 72.1228 38.786 71.6808 38.786C71.2388 38.786 70.8358 38.89 70.4718 39.098C70.1078 39.306 69.8175 39.6093 69.6008 40.008C69.3841 40.4067 69.2758 40.8747 69.2758 41.412C69.2758 41.958 69.3841 42.4347 69.6008 42.842C69.8175 43.2407 70.1078 43.5483 70.4718 43.765C70.8358 43.973 71.2388 44.077 71.6808 44.077C72.1228 44.077 72.5258 43.973 72.8898 43.765C73.2625 43.5483 73.5571 43.2407 73.7738 42.842C73.9905 42.4347 74.0988 41.9623 74.0988 41.425ZM80.3178 41.412C80.3178 40.684 80.4651 40.047 80.7598 39.501C81.0545 38.9463 81.4575 38.5173 81.9688 38.214C82.4888 37.9107 83.0651 37.759 83.6978 37.759C84.3218 37.759 84.8635 37.8933 85.3228 38.162C85.7821 38.4307 86.1245 38.7687 86.3498 39.176V37.876H87.5458V45H86.3498V43.674C86.1158 44.09 85.7648 44.4367 85.2968 44.714C84.8375 44.9827 84.3001 45.117 83.6848 45.117C83.0521 45.117 82.4801 44.961 81.9688 44.649C81.4575 44.337 81.0545 43.8993 80.7598 43.336C80.4651 42.7727 80.3178 42.1313 80.3178 41.412ZM86.3498 41.425C86.3498 40.8877 86.2415 40.4197 86.0248 40.021C85.8081 39.6223 85.5135 39.319 85.1408 39.111C84.7768 38.8943 84.3738 38.786 83.9318 38.786C83.4898 38.786 83.0868 38.89 82.7228 39.098C82.3588 39.306 82.0685 39.6093 81.8518 40.008C81.6351 40.4067 81.5268 40.8747 81.5268 41.412C81.5268 41.958 81.6351 42.4347 81.8518 42.842C82.0685 43.2407 82.3588 43.5483 82.7228 43.765C83.0868 43.973 83.4898 44.077 83.9318 44.077C84.3738 44.077 84.7768 43.973 85.1408 43.765C85.5135 43.5483 85.8081 43.2407 86.0248 42.842C86.2415 42.4347 86.3498 41.9623 86.3498 41.425ZM92.0669 45.117C91.5209 45.117 91.0313 45.026 90.5979 44.844C90.1646 44.6533 89.8223 44.3933 89.5709 44.064C89.3196 43.726 89.1809 43.3403 89.1549 42.907H90.3769C90.4116 43.2623 90.5763 43.5527 90.8709 43.778C91.1743 44.0033 91.5686 44.116 92.0539 44.116C92.5046 44.116 92.8599 44.0163 93.1199 43.817C93.3799 43.6177 93.5099 43.3663 93.5099 43.063C93.5099 42.751 93.3713 42.5213 93.0939 42.374C92.8166 42.218 92.3876 42.0663 91.8069 41.919C91.2783 41.7803 90.8449 41.6417 90.5069 41.503C90.1776 41.3557 89.8916 41.1433 89.6489 40.866C89.4149 40.58 89.2979 40.2073 89.2979 39.748C89.2979 39.384 89.4063 39.0503 89.6229 38.747C89.8396 38.4437 90.1473 38.2053 90.5459 38.032C90.9446 37.85 91.3996 37.759 91.9109 37.759C92.6996 37.759 93.3366 37.9583 93.8219 38.357C94.3073 38.7557 94.5673 39.3017 94.6019 39.995H93.4189C93.3929 39.6223 93.2413 39.3233 92.9639 39.098C92.6953 38.8727 92.3313 38.76 91.8719 38.76C91.4473 38.76 91.1093 38.851 90.8579 39.033C90.6066 39.215 90.4809 39.4533 90.4809 39.748C90.4809 39.982 90.5546 40.177 90.7019 40.333C90.8579 40.4803 91.0486 40.6017 91.2739 40.697C91.5079 40.7837 91.8286 40.8833 92.2359 40.996C92.7473 41.1347 93.1633 41.2733 93.4839 41.412C93.8046 41.542 94.0776 41.7413 94.3029 42.01C94.5369 42.2787 94.6583 42.6297 94.6669 43.063C94.6669 43.453 94.5586 43.804 94.3419 44.116C94.1253 44.428 93.8176 44.675 93.4189 44.857C93.0289 45.0303 92.5783 45.117 92.0669 45.117ZM98.8589 45.117C98.3129 45.117 97.8233 45.026 97.3899 44.844C96.9566 44.6533 96.6143 44.3933 96.3629 44.064C96.1116 43.726 95.9729 43.3403 95.9469 42.907H97.1689C97.2036 43.2623 97.3683 43.5527 97.6629 43.778C97.9663 44.0033 98.3606 44.116 98.8459 44.116C99.2966 44.116 99.6519 44.0163 99.9119 43.817C100.172 43.6177 100.302 43.3663 100.302 43.063C100.302 42.751 100.163 42.5213 99.8859 42.374C99.6086 42.218 99.1796 42.0663 98.5989 41.919C98.0703 41.7803 97.6369 41.6417 97.2989 41.503C96.9696 41.3557 96.6836 41.1433 96.4409 40.866C96.2069 40.58 96.0899 40.2073 96.0899 39.748C96.0899 39.384 96.1983 39.0503 96.4149 38.747C96.6316 38.4437 96.9393 38.2053 97.3379 38.032C97.7366 37.85 98.1916 37.759 98.7029 37.759C99.4916 37.759 100.129 37.9583 100.614 38.357C101.099 38.7557 101.359 39.3017 101.394 39.995H100.211C100.185 39.6223 100.033 39.3233 99.7559 39.098C99.4873 38.8727 99.1233 38.76 98.6639 38.76C98.2393 38.76 97.9013 38.851 97.6499 39.033C97.3986 39.215 97.2729 39.4533 97.2729 39.748C97.2729 39.982 97.3466 40.177 97.4939 40.333C97.6499 40.4803 97.8406 40.6017 98.0659 40.697C98.2999 40.7837 98.6206 40.8833 99.0279 40.996C99.5393 41.1347 99.9553 41.2733 100.276 41.412C100.597 41.542 100.87 41.7413 101.095 42.01C101.329 42.2787 101.45 42.6297 101.459 43.063C101.459 43.453 101.351 43.804 101.134 44.116C100.917 44.428 100.61 44.675 100.211 44.857C99.8209 45.0303 99.3703 45.117 98.8589 45.117ZM103.74 36.719C103.515 36.719 103.324 36.641 103.168 36.485C103.012 36.329 102.934 36.1383 102.934 35.913C102.934 35.6877 103.012 35.497 103.168 35.341C103.324 35.185 103.515 35.107 103.74 35.107C103.957 35.107 104.139 35.185 104.286 35.341C104.442 35.497 104.52 35.6877 104.52 35.913C104.52 36.1383 104.442 36.329 104.286 36.485C104.139 36.641 103.957 36.719 103.74 36.719ZM104.312 37.876V45H103.129V37.876H104.312ZM108.85 45.117C108.304 45.117 107.814 45.026 107.381 44.844C106.948 44.6533 106.605 44.3933 106.354 44.064C106.103 43.726 105.964 43.3403 105.938 42.907H107.16C107.195 43.2623 107.359 43.5527 107.654 43.778C107.957 44.0033 108.352 44.116 108.837 44.116C109.288 44.116 109.643 44.0163 109.903 43.817C110.163 43.6177 110.293 43.3663 110.293 43.063C110.293 42.751 110.154 42.5213 109.877 42.374C109.6 42.218 109.171 42.0663 108.59 41.919C108.061 41.7803 107.628 41.6417 107.29 41.503C106.961 41.3557 106.675 41.1433 106.432 40.866C106.198 40.58 106.081 40.2073 106.081 39.748C106.081 39.384 106.189 39.0503 106.406 38.747C106.623 38.4437 106.93 38.2053 107.329 38.032C107.728 37.85 108.183 37.759 108.694 37.759C109.483 37.759 110.12 37.9583 110.605 38.357C111.09 38.7557 111.35 39.3017 111.385 39.995H110.202C110.176 39.6223 110.024 39.3233 109.747 39.098C109.478 38.8727 109.114 38.76 108.655 38.76C108.23 38.76 107.892 38.851 107.641 39.033C107.39 39.215 107.264 39.4533 107.264 39.748C107.264 39.982 107.338 40.177 107.485 40.333C107.641 40.4803 107.832 40.6017 108.057 40.697C108.291 40.7837 108.612 40.8833 109.019 40.996C109.53 41.1347 109.946 41.2733 110.267 41.412C110.588 41.542 110.861 41.7413 111.086 42.01C111.32 42.2787 111.441 42.6297 111.45 43.063C111.45 43.453 111.342 43.804 111.125 44.116C110.908 44.428 110.601 44.675 110.202 44.857C109.812 45.0303 109.361 45.117 108.85 45.117ZM114.563 38.851V43.05C114.563 43.3967 114.637 43.6437 114.784 43.791C114.931 43.9297 115.187 43.999 115.551 43.999H116.422V45H115.356C114.697 45 114.203 44.8483 113.874 44.545C113.545 44.2417 113.38 43.7433 113.38 43.05V38.851H112.457V37.876H113.38V36.082H114.563V37.876H116.422V38.851H114.563ZM117.413 41.412C117.413 40.684 117.561 40.047 117.855 39.501C118.15 38.9463 118.553 38.5173 119.064 38.214C119.584 37.9107 120.161 37.759 120.793 37.759C121.417 37.759 121.959 37.8933 122.418 38.162C122.878 38.4307 123.22 38.7687 123.445 39.176V37.876H124.641V45H123.445V43.674C123.211 44.09 122.86 44.4367 122.392 44.714C121.933 44.9827 121.396 45.117 120.78 45.117C120.148 45.117 119.576 44.961 119.064 44.649C118.553 44.337 118.15 43.8993 117.855 43.336C117.561 42.7727 117.413 42.1313 117.413 41.412ZM123.445 41.425C123.445 40.8877 123.337 40.4197 123.12 40.021C122.904 39.6223 122.609 39.319 122.236 39.111C121.872 38.8943 121.469 38.786 121.027 38.786C120.585 38.786 120.182 38.89 119.818 39.098C119.454 39.306 119.164 39.6093 118.947 40.008C118.731 40.4067 118.622 40.8747 118.622 41.412C118.622 41.958 118.731 42.4347 118.947 42.842C119.164 43.2407 119.454 43.5483 119.818 43.765C120.182 43.973 120.585 44.077 121.027 44.077C121.469 44.077 121.872 43.973 122.236 43.765C122.609 43.5483 122.904 43.2407 123.12 42.842C123.337 42.4347 123.445 41.9623 123.445 41.425ZM130.112 37.746C130.978 37.746 131.68 38.0103 132.218 38.539C132.755 39.059 133.024 39.813 133.024 40.801V45H131.854V40.97C131.854 40.2593 131.676 39.7177 131.321 39.345C130.965 38.9637 130.48 38.773 129.865 38.773C129.241 38.773 128.742 38.968 128.37 39.358C128.006 39.748 127.824 40.3157 127.824 41.061V45H126.641V37.876H127.824V38.89C128.058 38.526 128.374 38.2443 128.773 38.045C129.18 37.8457 129.626 37.746 130.112 37.746ZM136.399 38.851V43.05C136.399 43.3967 136.473 43.6437 136.62 43.791C136.767 43.9297 137.023 43.999 137.387 43.999H138.258V45H137.192C136.533 45 136.039 44.8483 135.71 44.545C135.381 44.2417 135.216 43.7433 135.216 43.05V38.851H134.293V37.876H135.216V36.082H136.399V37.876H138.258V38.851H136.399ZM144.379 43.362L142.923 46.859H142.13L143.079 43.362H144.379ZM152.736 37.746C153.274 37.746 153.759 37.863 154.192 38.097C154.626 38.3223 154.964 38.6647 155.206 39.124C155.458 39.5833 155.583 40.1423 155.583 40.801V45H154.413V40.97C154.413 40.2593 154.236 39.7177 153.88 39.345C153.525 38.9637 153.04 38.773 152.424 38.773C151.8 38.773 151.302 38.968 150.929 39.358C150.565 39.748 150.383 40.3157 150.383 41.061V45H149.2V35.38H150.383V38.89C150.617 38.526 150.938 38.2443 151.345 38.045C151.761 37.8457 152.225 37.746 152.736 37.746ZM160.623 45.117C159.955 45.117 159.349 44.9653 158.803 44.662C158.265 44.3587 157.841 43.9297 157.529 43.375C157.225 42.8117 157.074 42.1617 157.074 41.425C157.074 40.697 157.23 40.0557 157.542 39.501C157.862 38.9377 158.296 38.5087 158.842 38.214C159.388 37.9107 159.999 37.759 160.675 37.759C161.351 37.759 161.962 37.9107 162.508 38.214C163.054 38.5087 163.483 38.9333 163.795 39.488C164.115 40.0427 164.276 40.6883 164.276 41.425C164.276 42.1617 164.111 42.8117 163.782 43.375C163.461 43.9297 163.023 44.3587 162.469 44.662C161.914 44.9653 161.299 45.117 160.623 45.117ZM160.623 44.077C161.047 44.077 161.446 43.9773 161.819 43.778C162.191 43.5787 162.49 43.2797 162.716 42.881C162.95 42.4823 163.067 41.997 163.067 41.425C163.067 40.853 162.954 40.3677 162.729 39.969C162.503 39.5703 162.209 39.2757 161.845 39.085C161.481 38.8857 161.086 38.786 160.662 38.786C160.228 38.786 159.83 38.8857 159.466 39.085C159.11 39.2757 158.824 39.5703 158.608 39.969C158.391 40.3677 158.283 40.853 158.283 41.425C158.283 42.0057 158.387 42.4953 158.595 42.894C158.811 43.2927 159.097 43.5917 159.453 43.791C159.808 43.9817 160.198 44.077 160.623 44.077ZM175.321 37.876L173.098 45H171.876L170.16 39.345L168.444 45H167.222L164.986 37.876H166.195L167.833 43.856L169.601 37.876H170.81L172.539 43.869L174.151 37.876H175.321ZM179.519 41.425C179.519 40.6883 179.666 40.047 179.961 39.501C180.256 38.9463 180.663 38.5173 181.183 38.214C181.712 37.9107 182.314 37.759 182.99 37.759C183.865 37.759 184.585 37.9713 185.148 38.396C185.72 38.8207 186.097 39.41 186.279 40.164H185.005C184.884 39.7307 184.645 39.3883 184.29 39.137C183.943 38.8857 183.51 38.76 182.99 38.76C182.314 38.76 181.768 38.994 181.352 39.462C180.936 39.9213 180.728 40.5757 180.728 41.425C180.728 42.283 180.936 42.946 181.352 43.414C181.768 43.882 182.314 44.116 182.99 44.116C183.51 44.116 183.943 43.9947 184.29 43.752C184.637 43.5093 184.875 43.1627 185.005 42.712H186.279C186.088 43.44 185.707 44.025 185.135 44.467C184.563 44.9003 183.848 45.117 182.99 45.117C182.314 45.117 181.712 44.9653 181.183 44.662C180.663 44.3587 180.256 43.9297 179.961 43.375C179.666 42.8203 179.519 42.1703 179.519 41.425ZM187.415 41.412C187.415 40.684 187.563 40.047 187.857 39.501C188.152 38.9463 188.555 38.5173 189.066 38.214C189.586 37.9107 190.163 37.759 190.795 37.759C191.419 37.759 191.961 37.8933 192.42 38.162C192.88 38.4307 193.222 38.7687 193.447 39.176V37.876H194.643V45H193.447V43.674C193.213 44.09 192.862 44.4367 192.394 44.714C191.935 44.9827 191.398 45.117 190.782 45.117C190.15 45.117 189.578 44.961 189.066 44.649C188.555 44.337 188.152 43.8993 187.857 43.336C187.563 42.7727 187.415 42.1313 187.415 41.412ZM193.447 41.425C193.447 40.8877 193.339 40.4197 193.122 40.021C192.906 39.6223 192.611 39.319 192.238 39.111C191.874 38.8943 191.471 38.786 191.029 38.786C190.587 38.786 190.184 38.89 189.82 39.098C189.456 39.306 189.166 39.6093 188.949 40.008C188.733 40.4067 188.624 40.8747 188.624 41.412C188.624 41.958 188.733 42.4347 188.949 42.842C189.166 43.2407 189.456 43.5483 189.82 43.765C190.184 43.973 190.587 44.077 191.029 44.077C191.471 44.077 191.874 43.973 192.238 43.765C192.611 43.5483 192.906 43.2407 193.122 42.842C193.339 42.4347 193.447 41.9623 193.447 41.425ZM200.114 37.746C200.98 37.746 201.682 38.0103 202.22 38.539C202.757 39.059 203.026 39.813 203.026 40.801V45H201.856V40.97C201.856 40.2593 201.678 39.7177 201.323 39.345C200.967 38.9637 200.482 38.773 199.867 38.773C199.243 38.773 198.744 38.968 198.372 39.358C198.008 39.748 197.826 40.3157 197.826 41.061V45H196.643V37.876H197.826V38.89C198.06 38.526 198.376 38.2443 198.775 38.045C199.182 37.8457 199.628 37.746 200.114 37.746ZM209.035 36.719C208.81 36.719 208.619 36.641 208.463 36.485C208.307 36.329 208.229 36.1383 208.229 35.913C208.229 35.6877 208.307 35.497 208.463 35.341C208.619 35.185 208.81 35.107 209.035 35.107C209.252 35.107 209.434 35.185 209.581 35.341C209.737 35.497 209.815 35.6877 209.815 35.913C209.815 36.1383 209.737 36.329 209.581 36.485C209.434 36.641 209.252 36.719 209.035 36.719ZM209.607 37.876V45H208.424V37.876H209.607ZM19.537 57.746C20.0743 57.746 20.5597 57.863 20.993 58.097C21.4263 58.3223 21.7643 58.6647 22.007 59.124C22.2583 59.5833 22.384 60.1423 22.384 60.801V65H21.214V60.97C21.214 60.2593 21.0363 59.7177 20.681 59.345C20.3257 58.9637 19.8403 58.773 19.225 58.773C18.601 58.773 18.1027 58.968 17.73 59.358C17.366 59.748 17.184 60.3157 17.184 61.061V65H16.001V55.38H17.184V58.89C17.418 58.526 17.7387 58.2443 18.146 58.045C18.562 57.8457 19.0257 57.746 19.537 57.746ZM30.8164 61.165C30.8164 61.3903 30.8034 61.6287 30.7774 61.88H25.0834C25.1268 62.582 25.3651 63.1323 25.7984 63.531C26.2404 63.921 26.7734 64.116 27.3974 64.116C27.9088 64.116 28.3334 63.999 28.6714 63.765C29.0181 63.5223 29.2608 63.2017 29.3994 62.803H30.6734C30.4828 63.4877 30.1014 64.0467 29.5294 64.48C28.9574 64.9047 28.2468 65.117 27.3974 65.117C26.7214 65.117 26.1148 64.9653 25.5774 64.662C25.0488 64.3587 24.6328 63.9297 24.3294 63.375C24.0261 62.8117 23.8744 62.1617 23.8744 61.425C23.8744 60.6883 24.0218 60.0427 24.3164 59.488C24.6111 58.9333 25.0228 58.5087 25.5514 58.214C26.0888 57.9107 26.7041 57.759 27.3974 57.759C28.0734 57.759 28.6714 57.9063 29.1914 58.201C29.7114 58.4957 30.1101 58.903 30.3874 59.423C30.6734 59.9343 30.8164 60.515 30.8164 61.165ZM29.5944 60.918C29.5944 60.4673 29.4948 60.0817 29.2954 59.761C29.0961 59.4317 28.8231 59.1847 28.4764 59.02C28.1384 58.8467 27.7614 58.76 27.3454 58.76C26.7474 58.76 26.2361 58.9507 25.8114 59.332C25.3954 59.7133 25.1571 60.242 25.0964 60.918H29.5944ZM33.561 55.38V65H32.378V55.38H33.561ZM36.7602 59.189C36.9942 58.7817 37.3408 58.4437 37.8002 58.175C38.2682 57.8977 38.8098 57.759 39.4252 57.759C40.0578 57.759 40.6298 57.9107 41.1412 58.214C41.6612 58.5173 42.0685 58.9463 42.3632 59.501C42.6578 60.047 42.8052 60.684 42.8052 61.412C42.8052 62.1313 42.6578 62.7727 42.3632 63.336C42.0685 63.8993 41.6612 64.337 41.1412 64.649C40.6298 64.961 40.0578 65.117 39.4252 65.117C38.8185 65.117 38.2812 64.9827 37.8132 64.714C37.3538 64.4367 37.0028 64.0943 36.7602 63.687V68.38H35.5772V57.876H36.7602V59.189ZM41.5962 61.412C41.5962 60.8747 41.4878 60.4067 41.2712 60.008C41.0545 59.6093 40.7598 59.306 40.3872 59.098C40.0232 58.89 39.6202 58.786 39.1782 58.786C38.7448 58.786 38.3418 58.8943 37.9692 59.111C37.6052 59.319 37.3105 59.6267 37.0852 60.034C36.8685 60.4327 36.7602 60.8963 36.7602 61.425C36.7602 61.9623 36.8685 62.4347 37.0852 62.842C37.3105 63.2407 37.6052 63.5483 37.9692 63.765C38.3418 63.973 38.7448 64.077 39.1782 64.077C39.6202 64.077 40.0232 63.973 40.3872 63.765C40.7598 63.5483 41.0545 63.2407 41.2712 62.842C41.4878 62.4347 41.5962 61.958 41.5962 61.412ZM53.9641 57.876L49.6741 68.354H48.4521L49.8561 64.922L46.9831 57.876H48.2961L50.5321 63.648L52.7421 57.876H53.9641ZM58.2603 65.117C57.593 65.117 56.9863 64.9653 56.4403 64.662C55.903 64.3587 55.4783 63.9297 55.1663 63.375C54.863 62.8117 54.7113 62.1617 54.7113 61.425C54.7113 60.697 54.8673 60.0557 55.1793 59.501C55.5 58.9377 55.9333 58.5087 56.4793 58.214C57.0253 57.9107 57.6363 57.759 58.3123 57.759C58.9883 57.759 59.5993 57.9107 60.1453 58.214C60.6913 58.5087 61.1203 58.9333 61.4323 59.488C61.753 60.0427 61.9133 60.6883 61.9133 61.425C61.9133 62.1617 61.7487 62.8117 61.4193 63.375C61.0987 63.9297 60.661 64.3587 60.1063 64.662C59.5517 64.9653 58.9363 65.117 58.2603 65.117ZM58.2603 64.077C58.685 64.077 59.0837 63.9773 59.4563 63.778C59.829 63.5787 60.128 63.2797 60.3533 62.881C60.5873 62.4823 60.7043 61.997 60.7043 61.425C60.7043 60.853 60.5917 60.3677 60.3663 59.969C60.141 59.5703 59.8463 59.2757 59.4823 59.085C59.1183 58.8857 58.724 58.786 58.2993 58.786C57.866 58.786 57.4673 58.8857 57.1033 59.085C56.748 59.2757 56.462 59.5703 56.2453 59.969C56.0287 60.3677 55.9203 60.853 55.9203 61.425C55.9203 62.0057 56.0243 62.4953 56.2323 62.894C56.449 63.2927 56.735 63.5917 57.0903 63.791C57.4457 63.9817 57.8357 64.077 58.2603 64.077ZM69.7868 57.876V65H68.6038V63.947C68.3784 64.311 68.0621 64.597 67.6548 64.805C67.2561 65.0043 66.8141 65.104 66.3288 65.104C65.7741 65.104 65.2758 64.9913 64.8338 64.766C64.3918 64.532 64.0408 64.1853 63.7808 63.726C63.5294 63.2667 63.4038 62.7077 63.4038 62.049V57.876H64.5738V61.893C64.5738 62.595 64.7514 63.1367 65.1068 63.518C65.4621 63.8907 65.9474 64.077 66.5628 64.077C67.1954 64.077 67.6938 63.882 68.0578 63.492C68.4218 63.102 68.6038 62.5343 68.6038 61.789V57.876H69.7868ZM76.693 58.851V63.05C76.693 63.3967 76.7667 63.6437 76.914 63.791C77.0614 63.9297 77.317 63.999 77.681 63.999H78.552V65H77.486C76.8274 65 76.3334 64.8483 76.004 64.545C75.6747 64.2417 75.51 63.7433 75.51 63.05V58.851H74.587V57.876H75.51V56.082H76.693V57.876H78.552V58.851H76.693ZM83.0924 65.117C82.425 65.117 81.8184 64.9653 81.2724 64.662C80.735 64.3587 80.3104 63.9297 79.9984 63.375C79.695 62.8117 79.5434 62.1617 79.5434 61.425C79.5434 60.697 79.6994 60.0557 80.0114 59.501C80.332 58.9377 80.7654 58.5087 81.3114 58.214C81.8574 57.9107 82.4684 57.759 83.1444 57.759C83.8204 57.759 84.4314 57.9107 84.9774 58.214C85.5234 58.5087 85.9524 58.9333 86.2644 59.488C86.585 60.0427 86.7454 60.6883 86.7454 61.425C86.7454 62.1617 86.5807 62.8117 86.2514 63.375C85.9307 63.9297 85.493 64.3587 84.9384 64.662C84.3837 64.9653 83.7684 65.117 83.0924 65.117ZM83.0924 64.077C83.517 64.077 83.9157 63.9773 84.2884 63.778C84.661 63.5787 84.96 63.2797 85.1854 62.881C85.4194 62.4823 85.5364 61.997 85.5364 61.425C85.5364 60.853 85.4237 60.3677 85.1984 59.969C84.973 59.5703 84.6784 59.2757 84.3144 59.085C83.9504 58.8857 83.556 58.786 83.1314 58.786C82.698 58.786 82.2994 58.8857 81.9354 59.085C81.58 59.2757 81.294 59.5703 81.0774 59.969C80.8607 60.3677 80.7524 60.853 80.7524 61.425C80.7524 62.0057 80.8564 62.4953 81.0644 62.894C81.281 63.2927 81.567 63.5917 81.9224 63.791C82.2777 63.9817 82.6677 64.077 83.0924 64.077ZM87.8588 61.412C87.8588 60.684 88.0061 60.047 88.3008 59.501C88.5955 58.9463 88.9985 58.5173 89.5098 58.214C90.0298 57.9107 90.6105 57.759 91.2518 57.759C91.8065 57.759 92.3221 57.889 92.7988 58.149C93.2755 58.4003 93.6395 58.734 93.8908 59.15V55.38H95.0868V65H93.8908V63.661C93.6568 64.0857 93.3101 64.4367 92.8508 64.714C92.3915 64.9827 91.8541 65.117 91.2388 65.117C90.6061 65.117 90.0298 64.961 89.5098 64.649C88.9985 64.337 88.5955 63.8993 88.3008 63.336C88.0061 62.7727 87.8588 62.1313 87.8588 61.412ZM93.8908 61.425C93.8908 60.8877 93.7825 60.4197 93.5658 60.021C93.3491 59.6223 93.0545 59.319 92.6818 59.111C92.3178 58.8943 91.9148 58.786 91.4728 58.786C91.0308 58.786 90.6278 58.89 90.2638 59.098C89.8998 59.306 89.6095 59.6093 89.3928 60.008C89.1761 60.4067 89.0678 60.8747 89.0678 61.412C89.0678 61.958 89.1761 62.4347 89.3928 62.842C89.6095 63.2407 89.8998 63.5483 90.2638 63.765C90.6278 63.973 91.0308 64.077 91.4728 64.077C91.9148 64.077 92.3178 63.973 92.6818 63.765C93.0545 63.5483 93.3491 63.2407 93.5658 62.842C93.7825 62.4347 93.8908 61.9623 93.8908 61.425ZM96.644 61.412C96.644 60.684 96.7913 60.047 97.086 59.501C97.3806 58.9463 97.7836 58.5173 98.295 58.214C98.815 57.9107 99.3913 57.759 100.024 57.759C100.648 57.759 101.19 57.8933 101.649 58.162C102.108 58.4307 102.451 58.7687 102.676 59.176V57.876H103.872V65H102.676V63.674C102.442 64.09 102.091 64.4367 101.623 64.714C101.164 64.9827 100.626 65.117 100.011 65.117C99.3783 65.117 98.8063 64.961 98.295 64.649C97.7836 64.337 97.3806 63.8993 97.086 63.336C96.7913 62.7727 96.644 62.1313 96.644 61.412ZM102.676 61.425C102.676 60.8877 102.568 60.4197 102.351 60.021C102.134 59.6223 101.84 59.319 101.467 59.111C101.103 58.8943 100.7 58.786 100.258 58.786C99.816 58.786 99.413 58.89 99.049 59.098C98.685 59.306 98.3946 59.6093 98.178 60.008C97.9613 60.4067 97.853 60.8747 97.853 61.412C97.853 61.958 97.9613 62.4347 98.178 62.842C98.3946 63.2407 98.685 63.5483 99.049 63.765C99.413 63.973 99.816 64.077 100.258 64.077C100.7 64.077 101.103 63.973 101.467 63.765C101.84 63.5483 102.134 63.2407 102.351 62.842C102.568 62.4347 102.676 61.9623 102.676 61.425ZM112.007 57.876L107.717 68.354H106.495L107.899 64.922L105.026 57.876H106.339L108.575 63.648L110.785 57.876H112.007ZM118.976 55.822C119.834 55.822 120.527 56.0647 121.056 56.55C121.585 57.0353 121.849 57.6853 121.849 58.5C121.849 59.41 121.567 60.086 121.004 60.528C120.441 60.9613 119.678 61.178 118.716 61.178L118.677 62.413H117.65L117.598 60.359H117.975C118.833 60.359 119.505 60.229 119.99 59.969C120.475 59.709 120.718 59.2193 120.718 58.5C120.718 57.98 120.562 57.5683 120.25 57.265C119.938 56.9617 119.518 56.81 118.989 56.81C118.452 56.81 118.027 56.9573 117.715 57.252C117.412 57.538 117.26 57.9323 117.26 58.435H116.142C116.142 57.915 116.259 57.46 116.493 57.07C116.727 56.6713 117.056 56.3637 117.481 56.147C117.914 55.9303 118.413 55.822 118.976 55.822ZM118.157 65.078C117.932 65.078 117.741 65 117.585 64.844C117.429 64.688 117.351 64.4973 117.351 64.272C117.351 64.0467 117.429 63.856 117.585 63.7C117.741 63.544 117.932 63.466 118.157 63.466C118.374 63.466 118.556 63.544 118.703 63.7C118.859 63.856 118.937 64.0467 118.937 64.272C118.937 64.4973 118.859 64.688 118.703 64.844C118.556 65 118.374 65.078 118.157 65.078Z" fill="#333333"/>
<path d="M10.4 94.39V93.7L13.91 88.84H15V93.6H16V94.39H15V96H14.1V94.39H10.4ZM14.14 89.79L11.45 93.6H14.14V89.79ZM17.3491 96.06C17.1757 96.06 17.0291 96 16.9091 95.88C16.7891 95.76 16.7291 95.6133 16.7291 95.44C16.7291 95.2667 16.7891 95.12 16.9091 95C17.0291 94.88 17.1757 94.82 17.3491 94.82C17.5157 94.82 17.6557 94.88 17.7691 95C17.8891 95.12 17.9491 95.2667 17.9491 95.44C17.9491 95.6133 17.8891 95.76 17.7691 95.88C17.6557 96 17.5157 96.06 17.3491 96.06ZM17.3491 91.78C17.1757 91.78 17.0291 91.72 16.9091 91.6C16.7891 91.48 16.7291 91.3333 16.7291 91.16C16.7291 90.9867 16.7891 90.84 16.9091 90.72C17.0291 90.6 17.1757 90.54 17.3491 90.54C17.5157 90.54 17.6557 90.6 17.7691 90.72C17.8891 90.84 17.9491 90.9867 17.9491 91.16C17.9491 91.3333 17.8891 91.48 17.7691 91.6C17.6557 91.72 17.5157 91.78 17.3491 91.78ZM18.818 94.39V93.7L22.328 88.84H23.418V93.6H24.418V94.39H23.418V96H22.518V94.39H18.818ZM22.558 89.79L19.868 93.6H22.558V89.79ZM29.937 89.56H26.427V91.84C26.5804 91.6267 26.807 91.4533 27.107 91.32C27.407 91.18 27.7304 91.11 28.077 91.11C28.6304 91.11 29.0804 91.2267 29.427 91.46C29.7737 91.6867 30.0204 91.9833 30.167 92.35C30.3204 92.71 30.397 93.0933 30.397 93.5C30.397 93.98 30.307 94.41 30.127 94.79C29.947 95.17 29.6704 95.47 29.297 95.69C28.9304 95.91 28.4737 96.02 27.927 96.02C27.227 96.02 26.6604 95.84 26.227 95.48C25.7937 95.12 25.5304 94.64 25.437 94.04H26.327C26.4137 94.42 26.597 94.7167 26.877 94.93C27.157 95.1433 27.5104 95.25 27.937 95.25C28.4637 95.25 28.8604 95.0933 29.127 94.78C29.3937 94.46 29.527 94.04 29.527 93.52C29.527 93 29.3937 92.6 29.127 92.32C28.8604 92.0333 28.467 91.89 27.947 91.89C27.5937 91.89 27.2837 91.9767 27.017 92.15C26.757 92.3167 26.567 92.5467 26.447 92.84H25.587V88.76H29.937V89.56ZM39.0823 91.07C39.0823 91.65 38.8823 92.1333 38.4823 92.52C38.089 92.9 37.4857 93.09 36.6723 93.09H35.3323V96H34.4223V89.03H36.6723C37.459 89.03 38.0557 89.22 38.4623 89.6C38.8757 89.98 39.0823 90.47 39.0823 91.07ZM36.6723 92.34C37.179 92.34 37.5523 92.23 37.7923 92.01C38.0323 91.79 38.1523 91.4767 38.1523 91.07C38.1523 90.21 37.659 89.78 36.6723 89.78H35.3323V92.34H36.6723ZM47.2834 89.08V96H46.3734V90.84L44.0734 96H43.4334L41.1234 90.83V96H40.2134V89.08H41.1934L43.7534 94.8L46.3134 89.08H47.2834Z" fill="#333333"/>
<defs>
<linearGradient id="paint0_linear_1_160" x1="47.5352" y1="-11.5" x2="277.688" y2="118.421" gradientUnits="userSpaceOnUse">
<stop stop-color="#E6EEFF"/>
<stop offset="1" stop-color="white"/>
</linearGradient>
</defs>
</svg>
