<svg width="330" height="80" viewBox="0 0 330 80" fill="none" xmlns="http://www.w3.org/2000/svg">
<rect x="117.5" y="0.5" width="212" height="59" rx="14.5" fill="#DCF7C5"/>
<rect x="117.5" y="0.5" width="212" height="59" rx="14.5" stroke="white"/>
<path d="M134.184 15.939V25H133.001V15.939H134.184ZM139.224 21.412C139.224 20.684 139.371 20.047 139.666 19.501C139.961 18.9463 140.364 18.5173 140.875 18.214C141.395 17.9107 141.971 17.759 142.604 17.759C143.228 17.759 143.77 17.8933 144.229 18.162C144.688 18.4307 145.031 18.7687 145.256 19.176V17.876H146.452V25H145.256V23.674C145.022 24.09 144.671 24.4367 144.203 24.714C143.744 24.9827 143.206 25.117 142.591 25.117C141.958 25.117 141.386 24.961 140.875 24.649C140.364 24.337 139.961 23.8993 139.666 23.336C139.371 22.7727 139.224 22.1313 139.224 21.412ZM145.256 21.425C145.256 20.8877 145.148 20.4197 144.931 20.021C144.714 19.6223 144.42 19.319 144.047 19.111C143.683 18.8943 143.28 18.786 142.838 18.786C142.396 18.786 141.993 18.89 141.629 19.098C141.265 19.306 140.975 19.6093 140.758 20.008C140.541 20.4067 140.433 20.8747 140.433 21.412C140.433 21.958 140.541 22.4347 140.758 22.842C140.975 23.2407 141.265 23.5483 141.629 23.765C141.993 23.973 142.396 24.077 142.838 24.077C143.28 24.077 143.683 23.973 144.047 23.765C144.42 23.5483 144.714 23.2407 144.931 22.842C145.148 22.4347 145.256 21.9623 145.256 21.425ZM157.018 17.746C157.573 17.746 158.067 17.863 158.5 18.097C158.934 18.3223 159.276 18.6647 159.527 19.124C159.779 19.5833 159.904 20.1423 159.904 20.801V25H158.734V20.97C158.734 20.2593 158.557 19.7177 158.201 19.345C157.855 18.9637 157.382 18.773 156.784 18.773C156.169 18.773 155.679 18.9723 155.315 19.371C154.951 19.761 154.769 20.3287 154.769 21.074V25H153.599V20.97C153.599 20.2593 153.422 19.7177 153.066 19.345C152.72 18.9637 152.247 18.773 151.649 18.773C151.034 18.773 150.544 18.9723 150.18 19.371C149.816 19.761 149.634 20.3287 149.634 21.074V25H148.451V17.876H149.634V18.903C149.868 18.5303 150.18 18.2443 150.57 18.045C150.969 17.8457 151.407 17.746 151.883 17.746C152.481 17.746 153.01 17.8803 153.469 18.149C153.929 18.4177 154.271 18.812 154.496 19.332C154.696 18.8293 155.025 18.4393 155.484 18.162C155.944 17.8847 156.455 17.746 157.018 17.746ZM166.494 15.38V25H165.311V15.38H166.494ZM171.617 25.117C170.949 25.117 170.343 24.9653 169.797 24.662C169.259 24.3587 168.835 23.9297 168.523 23.375C168.219 22.8117 168.068 22.1617 168.068 21.425C168.068 20.697 168.224 20.0557 168.536 19.501C168.856 18.9377 169.29 18.5087 169.836 18.214C170.382 17.9107 170.993 17.759 171.669 17.759C172.345 17.759 172.956 17.9107 173.502 18.214C174.048 18.5087 174.477 18.9333 174.789 19.488C175.109 20.0427 175.27 20.6883 175.27 21.425C175.27 22.1617 175.105 22.8117 174.776 23.375C174.455 23.9297 174.017 24.3587 173.463 24.662C172.908 24.9653 172.293 25.117 171.617 25.117ZM171.617 24.077C172.041 24.077 172.44 23.9773 172.813 23.778C173.185 23.5787 173.484 23.2797 173.71 22.881C173.944 22.4823 174.061 21.997 174.061 21.425C174.061 20.853 173.948 20.3677 173.723 19.969C173.497 19.5703 173.203 19.2757 172.839 19.085C172.475 18.8857 172.08 18.786 171.656 18.786C171.222 18.786 170.824 18.8857 170.46 19.085C170.104 19.2757 169.818 19.5703 169.602 19.969C169.385 20.3677 169.277 20.853 169.277 21.425C169.277 22.0057 169.381 22.4953 169.589 22.894C169.805 23.2927 170.091 23.5917 170.447 23.791C170.802 23.9817 171.192 24.077 171.617 24.077ZM179.932 25.117C179.265 25.117 178.658 24.9653 178.112 24.662C177.575 24.3587 177.15 23.9297 176.838 23.375C176.535 22.8117 176.383 22.1617 176.383 21.425C176.383 20.697 176.539 20.0557 176.851 19.501C177.172 18.9377 177.605 18.5087 178.151 18.214C178.697 17.9107 179.308 17.759 179.984 17.759C180.66 17.759 181.271 17.9107 181.817 18.214C182.363 18.5087 182.792 18.9333 183.104 19.488C183.425 20.0427 183.585 20.6883 183.585 21.425C183.585 22.1617 183.421 22.8117 183.091 23.375C182.771 23.9297 182.333 24.3587 181.778 24.662C181.224 24.9653 180.608 25.117 179.932 25.117ZM179.932 24.077C180.357 24.077 180.756 23.9773 181.128 23.778C181.501 23.5787 181.8 23.2797 182.025 22.881C182.259 22.4823 182.376 21.997 182.376 21.425C182.376 20.853 182.264 20.3677 182.038 19.969C181.813 19.5703 181.518 19.2757 181.154 19.085C180.79 18.8857 180.396 18.786 179.971 18.786C179.538 18.786 179.139 18.8857 178.775 19.085C178.42 19.2757 178.134 19.5703 177.917 19.969C177.701 20.3677 177.592 20.853 177.592 21.425C177.592 22.0057 177.696 22.4953 177.904 22.894C178.121 23.2927 178.407 23.5917 178.762 23.791C179.118 23.9817 179.508 24.077 179.932 24.077ZM189.119 25L186.324 21.854V25H185.141V15.38H186.324V21.035L189.067 17.876H190.718L187.364 21.425L190.731 25H189.119ZM192.442 16.719C192.217 16.719 192.026 16.641 191.87 16.485C191.714 16.329 191.636 16.1383 191.636 15.913C191.636 15.6877 191.714 15.497 191.87 15.341C192.026 15.185 192.217 15.107 192.442 15.107C192.659 15.107 192.841 15.185 192.988 15.341C193.144 15.497 193.222 15.6877 193.222 15.913C193.222 16.1383 193.144 16.329 192.988 16.485C192.841 16.641 192.659 16.719 192.442 16.719ZM193.014 17.876V25H191.831V17.876H193.014ZM198.501 17.746C199.368 17.746 200.07 18.0103 200.607 18.539C201.145 19.059 201.413 19.813 201.413 20.801V25H200.243V20.97C200.243 20.2593 200.066 19.7177 199.71 19.345C199.355 18.9637 198.87 18.773 198.254 18.773C197.63 18.773 197.132 18.968 196.759 19.358C196.395 19.748 196.213 20.3157 196.213 21.061V25H195.03V17.876H196.213V18.89C196.447 18.526 196.764 18.2443 197.162 18.045C197.57 17.8457 198.016 17.746 198.501 17.746ZM206.284 17.759C206.899 17.759 207.436 17.8933 207.896 18.162C208.364 18.4307 208.71 18.7687 208.936 19.176V17.876H210.132V25.156C210.132 25.806 209.993 26.3823 209.716 26.885C209.438 27.3963 209.04 27.795 208.52 28.081C208.008 28.367 207.41 28.51 206.726 28.51C205.79 28.51 205.01 28.289 204.386 27.847C203.762 27.405 203.393 26.8027 203.281 26.04H204.451C204.581 26.4733 204.849 26.82 205.257 27.08C205.664 27.3487 206.154 27.483 206.726 27.483C207.376 27.483 207.904 27.2793 208.312 26.872C208.728 26.4647 208.936 25.8927 208.936 25.156V23.661C208.702 24.077 208.355 24.4237 207.896 24.701C207.436 24.9783 206.899 25.117 206.284 25.117C205.651 25.117 205.075 24.961 204.555 24.649C204.043 24.337 203.64 23.8993 203.346 23.336C203.051 22.7727 202.904 22.1313 202.904 21.412C202.904 20.684 203.051 20.047 203.346 19.501C203.64 18.9463 204.043 18.5173 204.555 18.214C205.075 17.9107 205.651 17.759 206.284 17.759ZM208.936 21.425C208.936 20.8877 208.827 20.4197 208.611 20.021C208.394 19.6223 208.099 19.319 207.727 19.111C207.363 18.8943 206.96 18.786 206.518 18.786C206.076 18.786 205.673 18.89 205.309 19.098C204.945 19.306 204.654 19.6093 204.438 20.008C204.221 20.4067 204.113 20.8747 204.113 21.412C204.113 21.958 204.221 22.4347 204.438 22.842C204.654 23.2407 204.945 23.5483 205.309 23.765C205.673 23.973 206.076 24.077 206.518 24.077C206.96 24.077 207.363 23.973 207.727 23.765C208.099 23.5483 208.394 23.2407 208.611 22.842C208.827 22.4347 208.936 21.9623 208.936 21.425ZM218.496 18.851H217.001V25H215.818V18.851H214.895V17.876H215.818V17.369C215.818 16.5717 216.021 15.991 216.429 15.627C216.845 15.2543 217.508 15.068 218.418 15.068V16.056C217.898 16.056 217.529 16.16 217.313 16.368C217.105 16.5673 217.001 16.901 217.001 17.369V17.876H218.496V18.851ZM222.982 25.117C222.315 25.117 221.708 24.9653 221.162 24.662C220.625 24.3587 220.2 23.9297 219.888 23.375C219.585 22.8117 219.433 22.1617 219.433 21.425C219.433 20.697 219.589 20.0557 219.901 19.501C220.222 18.9377 220.655 18.5087 221.201 18.214C221.747 17.9107 222.358 17.759 223.034 17.759C223.71 17.759 224.321 17.9107 224.867 18.214C225.413 18.5087 225.842 18.9333 226.154 19.488C226.475 20.0427 226.635 20.6883 226.635 21.425C226.635 22.1617 226.47 22.8117 226.141 23.375C225.82 23.9297 225.383 24.3587 224.828 24.662C224.273 24.9653 223.658 25.117 222.982 25.117ZM222.982 24.077C223.407 24.077 223.805 23.9773 224.178 23.778C224.551 23.5787 224.85 23.2797 225.075 22.881C225.309 22.4823 225.426 21.997 225.426 21.425C225.426 20.853 225.313 20.3677 225.088 19.969C224.863 19.5703 224.568 19.2757 224.204 19.085C223.84 18.8857 223.446 18.786 223.021 18.786C222.588 18.786 222.189 18.8857 221.825 19.085C221.47 19.2757 221.184 19.5703 220.967 19.969C220.75 20.3677 220.642 20.853 220.642 21.425C220.642 22.0057 220.746 22.4953 220.954 22.894C221.171 23.2927 221.457 23.5917 221.812 23.791C222.167 23.9817 222.557 24.077 222.982 24.077ZM229.373 19.033C229.581 18.6257 229.876 18.3093 230.257 18.084C230.647 17.8587 231.12 17.746 231.674 17.746V18.968H231.362C230.036 18.968 229.373 19.6873 229.373 21.126V25H228.19V17.876H229.373V19.033ZM236.064 21.412C236.064 20.684 236.211 20.047 236.506 19.501C236.801 18.9463 237.204 18.5173 237.715 18.214C238.235 17.9107 238.811 17.759 239.444 17.759C240.068 17.759 240.61 17.8933 241.069 18.162C241.528 18.4307 241.871 18.7687 242.096 19.176V17.876H243.292V25H242.096V23.674C241.862 24.09 241.511 24.4367 241.043 24.714C240.584 24.9827 240.046 25.117 239.431 25.117C238.798 25.117 238.226 24.961 237.715 24.649C237.204 24.337 236.801 23.8993 236.506 23.336C236.211 22.7727 236.064 22.1313 236.064 21.412ZM242.096 21.425C242.096 20.8877 241.988 20.4197 241.771 20.021C241.554 19.6223 241.26 19.319 240.887 19.111C240.523 18.8943 240.12 18.786 239.678 18.786C239.236 18.786 238.833 18.89 238.469 19.098C238.105 19.306 237.815 19.6093 237.598 20.008C237.381 20.4067 237.273 20.8747 237.273 21.412C237.273 21.958 237.381 22.4347 237.598 22.842C237.815 23.2407 238.105 23.5483 238.469 23.765C238.833 23.973 239.236 24.077 239.678 24.077C240.12 24.077 240.523 23.973 240.887 23.765C241.26 23.5483 241.554 23.2407 241.771 22.842C241.988 22.4347 242.096 21.9623 242.096 21.425ZM252.293 17.746C252.83 17.746 253.316 17.863 253.749 18.097C254.182 18.3223 254.52 18.6647 254.763 19.124C255.014 19.5833 255.14 20.1423 255.14 20.801V25H253.97V20.97C253.97 20.2593 253.792 19.7177 253.437 19.345C253.082 18.9637 252.596 18.773 251.981 18.773C251.357 18.773 250.859 18.968 250.486 19.358C250.122 19.748 249.94 20.3157 249.94 21.061V25H248.757V15.38H249.94V18.89C250.174 18.526 250.495 18.2443 250.902 18.045C251.318 17.8457 251.782 17.746 252.293 17.746ZM256.63 21.412C256.63 20.684 256.778 20.047 257.072 19.501C257.367 18.9463 257.77 18.5173 258.281 18.214C258.801 17.9107 259.378 17.759 260.01 17.759C260.634 17.759 261.176 17.8933 261.635 18.162C262.095 18.4307 262.437 18.7687 262.662 19.176V17.876H263.858V25H262.662V23.674C262.428 24.09 262.077 24.4367 261.609 24.714C261.15 24.9827 260.613 25.117 259.997 25.117C259.365 25.117 258.793 24.961 258.281 24.649C257.77 24.337 257.367 23.8993 257.072 23.336C256.778 22.7727 256.63 22.1313 256.63 21.412ZM262.662 21.425C262.662 20.8877 262.554 20.4197 262.337 20.021C262.121 19.6223 261.826 19.319 261.453 19.111C261.089 18.8943 260.686 18.786 260.244 18.786C259.802 18.786 259.399 18.89 259.035 19.098C258.671 19.306 258.381 19.6093 258.164 20.008C257.948 20.4067 257.839 20.8747 257.839 21.412C257.839 21.958 257.948 22.4347 258.164 22.842C258.381 23.2407 258.671 23.5483 259.035 23.765C259.399 23.973 259.802 24.077 260.244 24.077C260.686 24.077 261.089 23.973 261.453 23.765C261.826 23.5483 262.121 23.2407 262.337 22.842C262.554 22.4347 262.662 21.9623 262.662 21.425ZM269.328 17.746C270.195 17.746 270.897 18.0103 271.434 18.539C271.972 19.059 272.24 19.813 272.24 20.801V25H271.07V20.97C271.07 20.2593 270.893 19.7177 270.537 19.345C270.182 18.9637 269.697 18.773 269.081 18.773C268.457 18.773 267.959 18.968 267.586 19.358C267.222 19.748 267.04 20.3157 267.04 21.061V25H265.857V17.876H267.04V18.89C267.274 18.526 267.591 18.2443 267.989 18.045C268.397 17.8457 268.843 17.746 269.328 17.746ZM273.731 21.412C273.731 20.684 273.878 20.047 274.173 19.501C274.468 18.9463 274.871 18.5173 275.382 18.214C275.902 17.9107 276.483 17.759 277.124 17.759C277.679 17.759 278.194 17.889 278.671 18.149C279.148 18.4003 279.512 18.734 279.763 19.15V15.38H280.959V25H279.763V23.661C279.529 24.0857 279.182 24.4367 278.723 24.714C278.264 24.9827 277.726 25.117 277.111 25.117C276.478 25.117 275.902 24.961 275.382 24.649C274.871 24.337 274.468 23.8993 274.173 23.336C273.878 22.7727 273.731 22.1313 273.731 21.412ZM279.763 21.425C279.763 20.8877 279.655 20.4197 279.438 20.021C279.221 19.6223 278.927 19.319 278.554 19.111C278.19 18.8943 277.787 18.786 277.345 18.786C276.903 18.786 276.5 18.89 276.136 19.098C275.772 19.306 275.482 19.6093 275.265 20.008C275.048 20.4067 274.94 20.8747 274.94 21.412C274.94 21.958 275.048 22.4347 275.265 22.842C275.482 23.2407 275.772 23.5483 276.136 23.765C276.5 23.973 276.903 24.077 277.345 24.077C277.787 24.077 278.19 23.973 278.554 23.765C278.927 23.5483 279.221 23.2407 279.438 22.842C279.655 22.4347 279.763 21.9623 279.763 21.425ZM287.607 19.202C287.85 18.7773 288.205 18.4307 288.673 18.162C289.141 17.8933 289.674 17.759 290.272 17.759C290.913 17.759 291.49 17.9107 292.001 18.214C292.512 18.5173 292.915 18.9463 293.21 19.501C293.505 20.047 293.652 20.684 293.652 21.412C293.652 22.1313 293.505 22.7727 293.21 23.336C292.915 23.8993 292.508 24.337 291.988 24.649C291.477 24.961 290.905 25.117 290.272 25.117C289.657 25.117 289.115 24.9827 288.647 24.714C288.188 24.4453 287.841 24.103 287.607 23.687V25H286.424V15.38H287.607V19.202ZM292.443 21.412C292.443 20.8747 292.335 20.4067 292.118 20.008C291.901 19.6093 291.607 19.306 291.234 19.098C290.87 18.89 290.467 18.786 290.025 18.786C289.592 18.786 289.189 18.8943 288.816 19.111C288.452 19.319 288.157 19.6267 287.932 20.034C287.715 20.4327 287.607 20.8963 287.607 21.425C287.607 21.9623 287.715 22.4347 287.932 22.842C288.157 23.2407 288.452 23.5483 288.816 23.765C289.189 23.973 289.592 24.077 290.025 24.077C290.467 24.077 290.87 23.973 291.234 23.765C291.607 23.5483 291.901 23.2407 292.118 22.842C292.335 22.4347 292.443 21.958 292.443 21.412ZM294.767 21.412C294.767 20.684 294.914 20.047 295.209 19.501C295.504 18.9463 295.907 18.5173 296.418 18.214C296.938 17.9107 297.514 17.759 298.147 17.759C298.771 17.759 299.313 17.8933 299.772 18.162C300.231 18.4307 300.574 18.7687 300.799 19.176V17.876H301.995V25H300.799V23.674C300.565 24.09 300.214 24.4367 299.746 24.714C299.287 24.9827 298.749 25.117 298.134 25.117C297.501 25.117 296.929 24.961 296.418 24.649C295.907 24.337 295.504 23.8993 295.209 23.336C294.914 22.7727 294.767 22.1313 294.767 21.412ZM300.799 21.425C300.799 20.8877 300.691 20.4197 300.474 20.021C300.257 19.6223 299.963 19.319 299.59 19.111C299.226 18.8943 298.823 18.786 298.381 18.786C297.939 18.786 297.536 18.89 297.172 19.098C296.808 19.306 296.518 19.6093 296.301 20.008C296.084 20.4067 295.976 20.8747 295.976 21.412C295.976 21.958 296.084 22.4347 296.301 22.842C296.518 23.2407 296.808 23.5483 297.172 23.765C297.536 23.973 297.939 24.077 298.381 24.077C298.823 24.077 299.226 23.973 299.59 23.765C299.963 23.5483 300.257 23.2407 300.474 22.842C300.691 22.4347 300.799 21.9623 300.799 21.425ZM306.932 17.759C307.547 17.759 308.085 17.8933 308.544 18.162C309.012 18.4307 309.359 18.7687 309.584 19.176V17.876H310.78V25.156C310.78 25.806 310.641 26.3823 310.364 26.885C310.087 27.3963 309.688 27.795 309.168 28.081C308.657 28.367 308.059 28.51 307.374 28.51C306.438 28.51 305.658 28.289 305.034 27.847C304.41 27.405 304.042 26.8027 303.929 26.04H305.099C305.229 26.4733 305.498 26.82 305.905 27.08C306.312 27.3487 306.802 27.483 307.374 27.483C308.024 27.483 308.553 27.2793 308.96 26.872C309.376 26.4647 309.584 25.8927 309.584 25.156V23.661C309.35 24.077 309.003 24.4237 308.544 24.701C308.085 24.9783 307.547 25.117 306.932 25.117C306.299 25.117 305.723 24.961 305.203 24.649C304.692 24.337 304.289 23.8993 303.994 23.336C303.699 22.7727 303.552 22.1313 303.552 21.412C303.552 20.684 303.699 20.047 303.994 19.501C304.289 18.9463 304.692 18.5173 305.203 18.214C305.723 17.9107 306.299 17.759 306.932 17.759ZM309.584 21.425C309.584 20.8877 309.476 20.4197 309.259 20.021C309.042 19.6223 308.748 19.319 308.375 19.111C308.011 18.8943 307.608 18.786 307.166 18.786C306.724 18.786 306.321 18.89 305.957 19.098C305.593 19.306 305.303 19.6093 305.086 20.008C304.869 20.4067 304.761 20.8747 304.761 21.412C304.761 21.958 304.869 22.4347 305.086 22.842C305.303 23.2407 305.593 23.5483 305.957 23.765C306.321 23.973 306.724 24.077 307.166 24.077C307.608 24.077 308.011 23.973 308.375 23.765C308.748 23.5483 309.042 23.2407 309.259 22.842C309.476 22.4347 309.584 21.9623 309.584 21.425ZM314.001 23.362L312.545 26.859H311.752L312.701 23.362H314.001ZM142.491 37.876L140.268 45H139.046L137.33 39.345L135.614 45H134.392L132.156 37.876H133.365L135.003 43.856L136.771 37.876H137.98L139.709 43.869L141.321 37.876H142.491ZM144.276 36.719C144.051 36.719 143.86 36.641 143.704 36.485C143.548 36.329 143.47 36.1383 143.47 35.913C143.47 35.6877 143.548 35.497 143.704 35.341C143.86 35.185 144.051 35.107 144.276 35.107C144.493 35.107 144.675 35.185 144.822 35.341C144.978 35.497 145.056 35.6877 145.056 35.913C145.056 36.1383 144.978 36.329 144.822 36.485C144.675 36.641 144.493 36.719 144.276 36.719ZM144.848 37.876V45H143.665V37.876H144.848ZM148.307 38.851V43.05C148.307 43.3967 148.381 43.6437 148.528 43.791C148.676 43.9297 148.931 43.999 149.295 43.999H150.166V45H149.1C148.442 45 147.948 44.8483 147.618 44.545C147.289 44.2417 147.124 43.7433 147.124 43.05V38.851H146.201V37.876H147.124V36.082H148.307V37.876H150.166V38.851H148.307ZM155.136 37.746C155.673 37.746 156.158 37.863 156.592 38.097C157.025 38.3223 157.363 38.6647 157.606 39.124C157.857 39.5833 157.983 40.1423 157.983 40.801V45H156.813V40.97C156.813 40.2593 156.635 39.7177 156.28 39.345C155.924 38.9637 155.439 38.773 154.824 38.773C154.2 38.773 153.701 38.968 153.329 39.358C152.965 39.748 152.783 40.3157 152.783 41.061V45H151.6V35.38H152.783V38.89C153.017 38.526 153.337 38.2443 153.745 38.045C154.161 37.8457 154.624 37.746 155.136 37.746ZM164.564 35.38V45H163.381V35.38H164.564ZM169.687 45.117C169.02 45.117 168.413 44.9653 167.867 44.662C167.33 44.3587 166.905 43.9297 166.593 43.375C166.29 42.8117 166.138 42.1617 166.138 41.425C166.138 40.697 166.294 40.0557 166.606 39.501C166.927 38.9377 167.36 38.5087 167.906 38.214C168.452 37.9107 169.063 37.759 169.739 37.759C170.415 37.759 171.026 37.9107 171.572 38.214C172.118 38.5087 172.547 38.9333 172.859 39.488C173.18 40.0427 173.34 40.6883 173.34 41.425C173.34 42.1617 173.175 42.8117 172.846 43.375C172.525 43.9297 172.088 44.3587 171.533 44.662C170.978 44.9653 170.363 45.117 169.687 45.117ZM169.687 44.077C170.112 44.077 170.51 43.9773 170.883 43.778C171.256 43.5787 171.555 43.2797 171.78 42.881C172.014 42.4823 172.131 41.997 172.131 41.425C172.131 40.853 172.018 40.3677 171.793 39.969C171.568 39.5703 171.273 39.2757 170.909 39.085C170.545 38.8857 170.151 38.786 169.726 38.786C169.293 38.786 168.894 38.8857 168.53 39.085C168.175 39.2757 167.889 39.5703 167.672 39.969C167.455 40.3677 167.347 40.853 167.347 41.425C167.347 42.0057 167.451 42.4953 167.659 42.894C167.876 43.2927 168.162 43.5917 168.517 43.791C168.872 43.9817 169.262 44.077 169.687 44.077ZM178.367 37.746C179.233 37.746 179.935 38.0103 180.473 38.539C181.01 39.059 181.279 39.813 181.279 40.801V45H180.109V40.97C180.109 40.2593 179.931 39.7177 179.576 39.345C179.22 38.9637 178.735 38.773 178.12 38.773C177.496 38.773 176.997 38.968 176.625 39.358C176.261 39.748 176.079 40.3157 176.079 41.061V45H174.896V37.876H176.079V38.89C176.313 38.526 176.629 38.2443 177.028 38.045C177.435 37.8457 177.881 37.746 178.367 37.746ZM186.149 37.759C186.764 37.759 187.302 37.8933 187.761 38.162C188.229 38.4307 188.576 38.7687 188.801 39.176V37.876H189.997V45.156C189.997 45.806 189.858 46.3823 189.581 46.885C189.304 47.3963 188.905 47.795 188.385 48.081C187.874 48.367 187.276 48.51 186.591 48.51C185.655 48.51 184.875 48.289 184.251 47.847C183.627 47.405 183.259 46.8027 183.146 46.04H184.316C184.446 46.4733 184.715 46.82 185.122 47.08C185.529 47.3487 186.019 47.483 186.591 47.483C187.241 47.483 187.77 47.2793 188.177 46.872C188.593 46.4647 188.801 45.8927 188.801 45.156V43.661C188.567 44.077 188.22 44.4237 187.761 44.701C187.302 44.9783 186.764 45.117 186.149 45.117C185.516 45.117 184.94 44.961 184.42 44.649C183.909 44.337 183.506 43.8993 183.211 43.336C182.916 42.7727 182.769 42.1313 182.769 41.412C182.769 40.684 182.916 40.047 183.211 39.501C183.506 38.9463 183.909 38.5173 184.42 38.214C184.94 37.9107 185.516 37.759 186.149 37.759ZM188.801 41.425C188.801 40.8877 188.693 40.4197 188.476 40.021C188.259 39.6223 187.965 39.319 187.592 39.111C187.228 38.8943 186.825 38.786 186.383 38.786C185.941 38.786 185.538 38.89 185.174 39.098C184.81 39.306 184.52 39.6093 184.303 40.008C184.086 40.4067 183.978 40.8747 183.978 41.412C183.978 41.958 184.086 42.4347 184.303 42.842C184.52 43.2407 184.81 43.5483 185.174 43.765C185.538 43.973 185.941 44.077 186.383 44.077C186.825 44.077 187.228 43.973 187.592 43.765C187.965 43.5483 188.259 43.2407 188.476 42.842C188.693 42.4347 188.801 41.9623 188.801 41.425ZM197.984 45.117C197.438 45.117 196.948 45.026 196.515 44.844C196.082 44.6533 195.739 44.3933 195.488 44.064C195.237 43.726 195.098 43.3403 195.072 42.907H196.294C196.329 43.2623 196.493 43.5527 196.788 43.778C197.091 44.0033 197.486 44.116 197.971 44.116C198.422 44.116 198.777 44.0163 199.037 43.817C199.297 43.6177 199.427 43.3663 199.427 43.063C199.427 42.751 199.288 42.5213 199.011 42.374C198.734 42.218 198.305 42.0663 197.724 41.919C197.195 41.7803 196.762 41.6417 196.424 41.503C196.095 41.3557 195.809 41.1433 195.566 40.866C195.332 40.58 195.215 40.2073 195.215 39.748C195.215 39.384 195.323 39.0503 195.54 38.747C195.757 38.4437 196.064 38.2053 196.463 38.032C196.862 37.85 197.317 37.759 197.828 37.759C198.617 37.759 199.254 37.9583 199.739 38.357C200.224 38.7557 200.484 39.3017 200.519 39.995H199.336C199.31 39.6223 199.158 39.3233 198.881 39.098C198.612 38.8727 198.248 38.76 197.789 38.76C197.364 38.76 197.026 38.851 196.775 39.033C196.524 39.215 196.398 39.4533 196.398 39.748C196.398 39.982 196.472 40.177 196.619 40.333C196.775 40.4803 196.966 40.6017 197.191 40.697C197.425 40.7837 197.746 40.8833 198.153 40.996C198.664 41.1347 199.08 41.2733 199.401 41.412C199.722 41.542 199.995 41.7413 200.22 42.01C200.454 42.2787 200.575 42.6297 200.584 43.063C200.584 43.453 200.476 43.804 200.259 44.116C200.042 44.428 199.735 44.675 199.336 44.857C198.946 45.0303 198.495 45.117 197.984 45.117ZM203.697 38.851V43.05C203.697 43.3967 203.771 43.6437 203.918 43.791C204.065 43.9297 204.321 43.999 204.685 43.999H205.556V45H204.49C203.831 45 203.337 44.8483 203.008 44.545C202.679 44.2417 202.514 43.7433 202.514 43.05V38.851H201.591V37.876H202.514V36.082H203.697V37.876H205.556V38.851H203.697ZM208.172 39.033C208.38 38.6257 208.675 38.3093 209.056 38.084C209.446 37.8587 209.919 37.746 210.473 37.746V38.968H210.161C208.835 38.968 208.172 39.6873 208.172 41.126V45H206.989V37.876H208.172V39.033ZM211.397 41.412C211.397 40.684 211.544 40.047 211.839 39.501C212.134 38.9463 212.537 38.5173 213.048 38.214C213.568 37.9107 214.144 37.759 214.777 37.759C215.401 37.759 215.943 37.8933 216.402 38.162C216.861 38.4307 217.204 38.7687 217.429 39.176V37.876H218.625V45H217.429V43.674C217.195 44.09 216.844 44.4367 216.376 44.714C215.917 44.9827 215.379 45.117 214.764 45.117C214.131 45.117 213.559 44.961 213.048 44.649C212.537 44.337 212.134 43.8993 211.839 43.336C211.544 42.7727 211.397 42.1313 211.397 41.412ZM217.429 41.425C217.429 40.8877 217.321 40.4197 217.104 40.021C216.887 39.6223 216.593 39.319 216.22 39.111C215.856 38.8943 215.453 38.786 215.011 38.786C214.569 38.786 214.166 38.89 213.802 39.098C213.438 39.306 213.148 39.6093 212.931 40.008C212.714 40.4067 212.606 40.8747 212.606 41.412C212.606 41.958 212.714 42.4347 212.931 42.842C213.148 43.2407 213.438 43.5483 213.802 43.765C214.166 43.973 214.569 44.077 215.011 44.077C215.453 44.077 215.856 43.973 216.22 43.765C216.593 43.5483 216.887 43.2407 217.104 42.842C217.321 42.4347 217.429 41.9623 217.429 41.425ZM221.807 39.189C222.041 38.7817 222.388 38.4437 222.847 38.175C223.315 37.8977 223.857 37.759 224.472 37.759C225.105 37.759 225.677 37.9107 226.188 38.214C226.708 38.5173 227.115 38.9463 227.41 39.501C227.705 40.047 227.852 40.684 227.852 41.412C227.852 42.1313 227.705 42.7727 227.41 43.336C227.115 43.8993 226.708 44.337 226.188 44.649C225.677 44.961 225.105 45.117 224.472 45.117C223.865 45.117 223.328 44.9827 222.86 44.714C222.401 44.4367 222.05 44.0943 221.807 43.687V48.38H220.624V37.876H221.807V39.189ZM226.643 41.412C226.643 40.8747 226.535 40.4067 226.318 40.008C226.101 39.6093 225.807 39.306 225.434 39.098C225.07 38.89 224.667 38.786 224.225 38.786C223.792 38.786 223.389 38.8943 223.016 39.111C222.652 39.319 222.357 39.6267 222.132 40.034C221.915 40.4327 221.807 40.8963 221.807 41.425C221.807 41.9623 221.915 42.4347 222.132 42.842C222.357 43.2407 222.652 43.5483 223.016 43.765C223.389 43.973 223.792 44.077 224.225 44.077C224.667 44.077 225.07 43.973 225.434 43.765C225.807 43.5483 226.101 43.2407 226.318 42.842C226.535 42.4347 226.643 41.958 226.643 41.412ZM233.252 45.078C233.027 45.078 232.836 45 232.68 44.844C232.524 44.688 232.446 44.4973 232.446 44.272C232.446 44.0467 232.524 43.856 232.68 43.7C232.836 43.544 233.027 43.466 233.252 43.466C233.469 43.466 233.651 43.544 233.798 43.7C233.954 43.856 234.032 44.0467 234.032 44.272C234.032 44.4973 233.954 44.688 233.798 44.844C233.651 45 233.469 45.078 233.252 45.078Z" fill="#333333"/>
<path d="M282.275 74.39V73.7L285.785 68.84H286.875V73.6H287.875V74.39H286.875V76H285.975V74.39H282.275ZM286.015 69.79L283.325 73.6H286.015V69.79ZM289.224 76.06C289.051 76.06 288.904 76 288.784 75.88C288.664 75.76 288.604 75.6133 288.604 75.44C288.604 75.2667 288.664 75.12 288.784 75C288.904 74.88 289.051 74.82 289.224 74.82C289.391 74.82 289.531 74.88 289.644 75C289.764 75.12 289.824 75.2667 289.824 75.44C289.824 75.6133 289.764 75.76 289.644 75.88C289.531 76 289.391 76.06 289.224 76.06ZM289.224 71.78C289.051 71.78 288.904 71.72 288.784 71.6C288.664 71.48 288.604 71.3333 288.604 71.16C288.604 70.9867 288.664 70.84 288.784 70.72C288.904 70.6 289.051 70.54 289.224 70.54C289.391 70.54 289.531 70.6 289.644 70.72C289.764 70.84 289.824 70.9867 289.824 71.16C289.824 71.3333 289.764 71.48 289.644 71.6C289.531 71.72 289.391 71.78 289.224 71.78ZM290.693 74.39V73.7L294.203 68.84H295.293V73.6H296.293V74.39H295.293V76H294.393V74.39H290.693ZM294.433 69.79L291.743 73.6H294.433V69.79ZM301.232 70.49C301.085 69.75 300.629 69.38 299.862 69.38C299.269 69.38 298.825 69.61 298.532 70.07C298.239 70.5233 298.095 71.2733 298.102 72.32C298.255 71.9733 298.509 71.7033 298.862 71.51C299.222 71.31 299.622 71.21 300.062 71.21C300.749 71.21 301.295 71.4233 301.702 71.85C302.115 72.2767 302.322 72.8667 302.322 73.62C302.322 74.0733 302.232 74.48 302.052 74.84C301.879 75.2 301.612 75.4867 301.252 75.7C300.899 75.9133 300.469 76.02 299.962 76.02C299.275 76.02 298.739 75.8667 298.352 75.56C297.965 75.2533 297.695 74.83 297.542 74.29C297.389 73.75 297.312 73.0833 297.312 72.29C297.312 69.8433 298.165 68.62 299.872 68.62C300.525 68.62 301.039 68.7967 301.412 69.15C301.785 69.5033 302.005 69.95 302.072 70.49H301.232ZM299.872 71.98C299.585 71.98 299.315 72.04 299.062 72.16C298.809 72.2733 298.602 72.45 298.442 72.69C298.289 72.9233 298.212 73.21 298.212 73.55C298.212 74.0567 298.359 74.47 298.652 74.79C298.945 75.1033 299.365 75.26 299.912 75.26C300.379 75.26 300.749 75.1167 301.022 74.83C301.302 74.5367 301.442 74.1433 301.442 73.65C301.442 73.13 301.309 72.7233 301.042 72.43C300.775 72.13 300.385 71.98 299.872 71.98ZM311.026 71.07C311.026 71.65 310.826 72.1333 310.426 72.52C310.032 72.9 309.429 73.09 308.616 73.09H307.276V76H306.366V69.03H308.616C309.402 69.03 309.999 69.22 310.406 69.6C310.819 69.98 311.026 70.47 311.026 71.07ZM308.616 72.34C309.122 72.34 309.496 72.23 309.736 72.01C309.976 71.79 310.096 71.4767 310.096 71.07C310.096 70.21 309.602 69.78 308.616 69.78H307.276V72.34H308.616ZM319.227 69.08V76H318.317V70.84L316.017 76H315.377L313.067 70.83V76H312.157V69.08H313.137L315.697 74.8L318.257 69.08H319.227Z" fill="#333333"/>
</svg>
