<svg width="62" height="60" viewBox="0 0 62 60" fill="none" xmlns="http://www.w3.org/2000/svg">
<circle cx="4" cy="41" r="4" fill="#3FE225"/>
<path d="M18.88 45.105C17.91 45.105 17.015 44.88 16.195 44.43C15.385 43.97 14.74 43.335 14.26 42.525C13.79 41.705 13.555 40.785 13.555 39.765C13.555 38.745 13.79 37.83 14.26 37.02C14.74 36.21 15.385 35.58 16.195 35.13C17.015 34.67 17.91 34.44 18.88 34.44C19.86 34.44 20.755 34.67 21.565 35.13C22.385 35.58 23.03 36.21 23.5 37.02C23.97 37.83 24.205 38.745 24.205 39.765C24.205 40.785 23.97 41.705 23.5 42.525C23.03 43.335 22.385 43.97 21.565 44.43C20.755 44.88 19.86 45.105 18.88 45.105ZM18.88 43.62C19.57 43.62 20.185 43.465 20.725 43.155C21.265 42.835 21.685 42.385 21.985 41.805C22.295 41.215 22.45 40.535 22.45 39.765C22.45 38.995 22.295 38.32 21.985 37.74C21.685 37.16 21.265 36.715 20.725 36.405C20.185 36.095 19.57 35.94 18.88 35.94C18.19 35.94 17.575 36.095 17.035 36.405C16.495 36.715 16.07 37.16 15.76 37.74C15.46 38.32 15.31 38.995 15.31 39.765C15.31 40.535 15.46 41.215 15.76 41.805C16.07 42.385 16.495 42.835 17.035 43.155C17.575 43.465 18.19 43.62 18.88 43.62ZM30.0577 36.6C30.7077 36.6 31.2877 36.735 31.7977 37.005C32.3177 37.275 32.7227 37.675 33.0127 38.205C33.3027 38.735 33.4477 39.375 33.4477 40.125V45H31.7527V40.38C31.7527 39.64 31.5677 39.075 31.1977 38.685C30.8277 38.285 30.3227 38.085 29.6827 38.085C29.0427 38.085 28.5327 38.285 28.1527 38.685C27.7827 39.075 27.5977 39.64 27.5977 40.38V45H25.8877V36.735H27.5977V37.68C27.8777 37.34 28.2327 37.075 28.6627 36.885C29.1027 36.695 29.5677 36.6 30.0577 36.6ZM37.3389 33.9V45H35.6289V33.9H37.3389ZM40.454 35.64C40.144 35.64 39.884 35.535 39.674 35.325C39.464 35.115 39.359 34.855 39.359 34.545C39.359 34.235 39.464 33.975 39.674 33.765C39.884 33.555 40.144 33.45 40.454 33.45C40.754 33.45 41.009 33.555 41.219 33.765C41.429 33.975 41.534 34.235 41.534 34.545C41.534 34.855 41.429 35.115 41.219 35.325C41.009 35.535 40.754 35.64 40.454 35.64ZM41.294 36.735V45H39.584V36.735H41.294ZM47.7091 36.6C48.3591 36.6 48.9391 36.735 49.4491 37.005C49.9691 37.275 50.3741 37.675 50.6641 38.205C50.9541 38.735 51.0991 39.375 51.0991 40.125V45H49.4041V40.38C49.4041 39.64 49.2191 39.075 48.8491 38.685C48.4791 38.285 47.9741 38.085 47.3341 38.085C46.6941 38.085 46.1841 38.285 45.8041 38.685C45.4341 39.075 45.2491 39.64 45.2491 40.38V45H43.5391V36.735H45.2491V37.68C45.5291 37.34 45.8841 37.075 46.3141 36.885C46.7541 36.695 47.2191 36.6 47.7091 36.6ZM60.8553 40.665C60.8553 40.975 60.8353 41.255 60.7953 41.505H54.4803C54.5303 42.165 54.7753 42.695 55.2153 43.095C55.6553 43.495 56.1953 43.695 56.8353 43.695C57.7553 43.695 58.4053 43.31 58.7853 42.54H60.6303C60.3803 43.3 59.9253 43.925 59.2653 44.415C58.6153 44.895 57.8053 45.135 56.8353 45.135C56.0453 45.135 55.3353 44.96 54.7053 44.61C54.0853 44.25 53.5953 43.75 53.2353 43.11C52.8853 42.46 52.7103 41.71 52.7103 40.86C52.7103 40.01 52.8803 39.265 53.2203 38.625C53.5703 37.975 54.0553 37.475 54.6753 37.125C55.3053 36.775 56.0253 36.6 56.8353 36.6C57.6153 36.6 58.3103 36.77 58.9203 37.11C59.5303 37.45 60.0053 37.93 60.3453 38.55C60.6853 39.16 60.8553 39.865 60.8553 40.665ZM59.0703 40.125C59.0603 39.495 58.8353 38.99 58.3953 38.61C57.9553 38.23 57.4103 38.04 56.7603 38.04C56.1703 38.04 55.6653 38.23 55.2453 38.61C54.8253 38.98 54.5753 39.485 54.4953 40.125H59.0703Z" fill="#4C82EF"/>
</svg>
