<svg width="330" height="60" viewBox="0 0 330 60" fill="none" xmlns="http://www.w3.org/2000/svg">
<path d="M7.059 8.591C7.059 9.345 6.799 9.97333 6.279 10.476C5.76767 10.97 4.98333 11.217 3.926 11.217H2.184V15H1.001V5.939H3.926C4.94867 5.939 5.72433 6.186 6.253 6.68C6.79033 7.174 7.059 7.811 7.059 8.591ZM3.926 10.242C4.58467 10.242 5.07 10.099 5.382 9.813C5.694 9.527 5.85 9.11967 5.85 8.591C5.85 7.473 5.20867 6.914 3.926 6.914H2.184V10.242H3.926ZM11.6363 15.117C10.969 15.117 10.3623 14.9653 9.81632 14.662C9.27899 14.3587 8.85432 13.9297 8.54232 13.375C8.23899 12.8117 8.08732 12.1617 8.08732 11.425C8.08732 10.697 8.24332 10.0557 8.55532 9.501C8.87599 8.93767 9.30932 8.50867 9.85532 8.214C10.4013 7.91067 11.0123 7.759 11.6883 7.759C12.3643 7.759 12.9753 7.91067 13.5213 8.214C14.0673 8.50867 14.4963 8.93333 14.8083 9.488C15.129 10.0427 15.2893 10.6883 15.2893 11.425C15.2893 12.1617 15.1247 12.8117 14.7953 13.375C14.4747 13.9297 14.037 14.3587 13.4823 14.662C12.9277 14.9653 12.3123 15.117 11.6363 15.117ZM11.6363 14.077C12.061 14.077 12.4597 13.9773 12.8323 13.778C13.205 13.5787 13.504 13.2797 13.7293 12.881C13.9633 12.4823 14.0803 11.997 14.0803 11.425C14.0803 10.853 13.9677 10.3677 13.7423 9.969C13.517 9.57033 13.2223 9.27567 12.8583 9.085C12.4943 8.88567 12.1 8.786 11.6753 8.786C11.242 8.786 10.8433 8.88567 10.4793 9.085C10.124 9.27567 9.83799 9.57033 9.62132 9.969C9.40465 10.3677 9.29632 10.853 9.29632 11.425C9.29632 12.0057 9.40032 12.4953 9.60832 12.894C9.82499 13.2927 10.111 13.5917 10.4663 13.791C10.8217 13.9817 11.2117 14.077 11.6363 14.077ZM18.0278 9.189C18.2618 8.78167 18.6084 8.44367 19.0678 8.175C19.5358 7.89767 20.0774 7.759 20.6928 7.759C21.3254 7.759 21.8974 7.91067 22.4087 8.214C22.9287 8.51733 23.3361 8.94633 23.6308 9.501C23.9254 10.047 24.0728 10.684 24.0728 11.412C24.0728 12.1313 23.9254 12.7727 23.6308 13.336C23.3361 13.8993 22.9287 14.337 22.4087 14.649C21.8974 14.961 21.3254 15.117 20.6928 15.117C20.0861 15.117 19.5488 14.9827 19.0808 14.714C18.6214 14.4367 18.2704 14.0943 18.0278 13.687V18.38H16.8448V7.876H18.0278V9.189ZM22.8638 11.412C22.8638 10.8747 22.7554 10.4067 22.5388 10.008C22.3221 9.60933 22.0274 9.306 21.6548 9.098C21.2908 8.89 20.8878 8.786 20.4458 8.786C20.0124 8.786 19.6094 8.89433 19.2368 9.111C18.8728 9.319 18.5781 9.62667 18.3528 10.034C18.1361 10.4327 18.0278 10.8963 18.0278 11.425C18.0278 11.9623 18.1361 12.4347 18.3528 12.842C18.5781 13.2407 18.8728 13.5483 19.2368 13.765C19.6094 13.973 20.0124 14.077 20.4458 14.077C20.8878 14.077 21.2908 13.973 21.6548 13.765C22.0274 13.5483 22.3221 13.2407 22.5388 12.842C22.7554 12.4347 22.8638 11.958 22.8638 11.412ZM31.9479 7.876V15H30.7649V13.947C30.5396 14.311 30.2232 14.597 29.8159 14.805C29.4172 15.0043 28.9752 15.104 28.4899 15.104C27.9352 15.104 27.4369 14.9913 26.9949 14.766C26.5529 14.532 26.2019 14.1853 25.9419 13.726C25.6906 13.2667 25.5649 12.7077 25.5649 12.049V7.876H26.7349V11.893C26.7349 12.595 26.9126 13.1367 27.2679 13.518C27.6232 13.8907 28.1086 14.077 28.7239 14.077C29.3566 14.077 29.8549 13.882 30.2189 13.492C30.5829 13.102 30.7649 12.5343 30.7649 11.789V7.876H31.9479ZM35.1283 5.38V15H33.9453V5.38H35.1283ZM36.7026 11.412C36.7026 10.684 36.8499 10.047 37.1446 9.501C37.4392 8.94633 37.8422 8.51733 38.3536 8.214C38.8736 7.91067 39.4499 7.759 40.0826 7.759C40.7066 7.759 41.2482 7.89333 41.7076 8.162C42.1669 8.43067 42.5092 8.76867 42.7346 9.176V7.876H43.9306V15H42.7346V13.674C42.5006 14.09 42.1496 14.4367 41.6816 14.714C41.2222 14.9827 40.6849 15.117 40.0696 15.117C39.4369 15.117 38.8649 14.961 38.3536 14.649C37.8422 14.337 37.4392 13.8993 37.1446 13.336C36.8499 12.7727 36.7026 12.1313 36.7026 11.412ZM42.7346 11.425C42.7346 10.8877 42.6262 10.4197 42.4096 10.021C42.1929 9.62233 41.8982 9.319 41.5256 9.111C41.1616 8.89433 40.7586 8.786 40.3166 8.786C39.8746 8.786 39.4716 8.89 39.1076 9.098C38.7436 9.306 38.4532 9.60933 38.2366 10.008C38.0199 10.4067 37.9116 10.8747 37.9116 11.412C37.9116 11.958 38.0199 12.4347 38.2366 12.842C38.4532 13.2407 38.7436 13.5483 39.1076 13.765C39.4716 13.973 39.8746 14.077 40.3166 14.077C40.7586 14.077 41.1616 13.973 41.5256 13.765C41.8982 13.5483 42.1929 13.2407 42.4096 12.842C42.6262 12.4347 42.7346 11.9623 42.7346 11.425ZM47.1127 9.033C47.3207 8.62567 47.6154 8.30933 47.9967 8.084C48.3867 7.85867 48.859 7.746 49.4137 7.746V8.968H49.1017C47.7757 8.968 47.1127 9.68733 47.1127 11.126V15H45.9297V7.876H47.1127V9.033ZM55.6881 8.851V13.05C55.6881 13.3967 55.7618 13.6437 55.9091 13.791C56.0565 13.9297 56.3121 13.999 56.6761 13.999H57.5471V15H56.4811C55.8225 15 55.3285 14.8483 54.9991 14.545C54.6698 14.2417 54.5051 13.7433 54.5051 13.05V8.851H53.5821V7.876H54.5051V6.082H55.6881V7.876H57.5471V8.851H55.6881ZM58.5385 11.412C58.5385 10.684 58.6858 10.047 58.9805 9.501C59.2752 8.94633 59.6782 8.51733 60.1895 8.214C60.7095 7.91067 61.2858 7.759 61.9185 7.759C62.5425 7.759 63.0842 7.89333 63.5435 8.162C64.0028 8.43067 64.3452 8.76867 64.5705 9.176V7.876H65.7665V15H64.5705V13.674C64.3365 14.09 63.9855 14.4367 63.5175 14.714C63.0582 14.9827 62.5208 15.117 61.9055 15.117C61.2728 15.117 60.7008 14.961 60.1895 14.649C59.6782 14.337 59.2752 13.8993 58.9805 13.336C58.6858 12.7727 58.5385 12.1313 58.5385 11.412ZM64.5705 11.425C64.5705 10.8877 64.4622 10.4197 64.2455 10.021C64.0288 9.62233 63.7342 9.319 63.3615 9.111C62.9975 8.89433 62.5945 8.786 62.1525 8.786C61.7105 8.786 61.3075 8.89 60.9435 9.098C60.5795 9.306 60.2892 9.60933 60.0725 10.008C59.8558 10.4067 59.7475 10.8747 59.7475 11.412C59.7475 11.958 59.8558 12.4347 60.0725 12.842C60.2892 13.2407 60.5795 13.5483 60.9435 13.765C61.3075 13.973 61.7105 14.077 62.1525 14.077C62.5945 14.077 62.9975 13.973 63.3615 13.765C63.7342 13.5483 64.0288 13.2407 64.2455 12.842C64.4622 12.4347 64.5705 11.9623 64.5705 11.425ZM70.7036 7.759C71.319 7.759 71.8563 7.89333 72.3156 8.162C72.7836 8.43067 73.1303 8.76867 73.3556 9.176V7.876H74.5516V15.156C74.5516 15.806 74.413 16.3823 74.1356 16.885C73.8583 17.3963 73.4596 17.795 72.9396 18.081C72.4283 18.367 71.8303 18.51 71.1456 18.51C70.2096 18.51 69.4296 18.289 68.8056 17.847C68.1816 17.405 67.8133 16.8027 67.7006 16.04H68.8706C69.0006 16.4733 69.2693 16.82 69.6766 17.08C70.084 17.3487 70.5736 17.483 71.1456 17.483C71.7956 17.483 72.3243 17.2793 72.7316 16.872C73.1476 16.4647 73.3556 15.8927 73.3556 15.156V13.661C73.1216 14.077 72.775 14.4237 72.3156 14.701C71.8563 14.9783 71.319 15.117 70.7036 15.117C70.071 15.117 69.4946 14.961 68.9746 14.649C68.4633 14.337 68.0603 13.8993 67.7656 13.336C67.471 12.7727 67.3236 12.1313 67.3236 11.412C67.3236 10.684 67.471 10.047 67.7656 9.501C68.0603 8.94633 68.4633 8.51733 68.9746 8.214C69.4946 7.91067 70.071 7.759 70.7036 7.759ZM73.3556 11.425C73.3556 10.8877 73.2473 10.4197 73.0306 10.021C72.814 9.62233 72.5193 9.319 72.1466 9.111C71.7826 8.89433 71.3796 8.786 70.9376 8.786C70.4956 8.786 70.0926 8.89 69.7286 9.098C69.3646 9.306 69.0743 9.60933 68.8576 10.008C68.641 10.4067 68.5326 10.8747 68.5326 11.412C68.5326 11.958 68.641 12.4347 68.8576 12.842C69.0743 13.2407 69.3646 13.5483 69.7286 13.765C70.0926 13.973 70.4956 14.077 70.9376 14.077C71.3796 14.077 71.7826 13.973 72.1466 13.765C72.5193 13.5483 72.814 13.2407 73.0306 12.842C73.2473 12.4347 73.3556 11.9623 73.3556 11.425ZM79.0728 15.117C78.5268 15.117 78.0371 15.026 77.6038 14.844C77.1705 14.6533 76.8281 14.3933 76.5768 14.064C76.3255 13.726 76.1868 13.3403 76.1608 12.907H77.3828C77.4175 13.2623 77.5821 13.5527 77.8768 13.778C78.1801 14.0033 78.5745 14.116 79.0598 14.116C79.5105 14.116 79.8658 14.0163 80.1258 13.817C80.3858 13.6177 80.5158 13.3663 80.5158 13.063C80.5158 12.751 80.3771 12.5213 80.0998 12.374C79.8225 12.218 79.3935 12.0663 78.8128 11.919C78.2841 11.7803 77.8508 11.6417 77.5128 11.503C77.1835 11.3557 76.8975 11.1433 76.6548 10.866C76.4208 10.58 76.3038 10.2073 76.3038 9.748C76.3038 9.384 76.4121 9.05033 76.6288 8.747C76.8455 8.44367 77.1531 8.20533 77.5518 8.032C77.9505 7.85 78.4055 7.759 78.9168 7.759C79.7055 7.759 80.3425 7.95833 80.8278 8.357C81.3131 8.75567 81.5731 9.30167 81.6078 9.995H80.4248C80.3988 9.62233 80.2471 9.32333 79.9698 9.098C79.7011 8.87267 79.3371 8.76 78.8778 8.76C78.4531 8.76 78.1151 8.851 77.8638 9.033C77.6125 9.215 77.4868 9.45333 77.4868 9.748C77.4868 9.982 77.5605 10.177 77.7078 10.333C77.8638 10.4803 78.0545 10.6017 78.2798 10.697C78.5138 10.7837 78.8345 10.8833 79.2418 10.996C79.7531 11.1347 80.1691 11.2733 80.4898 11.412C80.8105 11.542 81.0835 11.7413 81.3088 12.01C81.5428 12.2787 81.6641 12.6297 81.6728 13.063C81.6728 13.453 81.5645 13.804 81.3478 14.116C81.1311 14.428 80.8235 14.675 80.4248 14.857C80.0348 15.0303 79.5841 15.117 79.0728 15.117ZM89.7076 8.851H88.2126V15H87.0296V8.851H86.1066V7.876H87.0296V7.369C87.0296 6.57167 87.2333 5.991 87.6406 5.627C88.0566 5.25433 88.7196 5.068 89.6296 5.068V6.056C89.1096 6.056 88.7413 6.16 88.5246 6.368C88.3166 6.56733 88.2126 6.901 88.2126 7.369V7.876H89.7076V8.851ZM94.1939 15.117C93.5266 15.117 92.9199 14.9653 92.3739 14.662C91.8366 14.3587 91.4119 13.9297 91.0999 13.375C90.7966 12.8117 90.6449 12.1617 90.6449 11.425C90.6449 10.697 90.8009 10.0557 91.1129 9.501C91.4336 8.93767 91.8669 8.50867 92.4129 8.214C92.9589 7.91067 93.5699 7.759 94.2459 7.759C94.9219 7.759 95.5329 7.91067 96.0789 8.214C96.6249 8.50867 97.0539 8.93333 97.3659 9.488C97.6866 10.0427 97.8469 10.6883 97.8469 11.425C97.8469 12.1617 97.6823 12.8117 97.3529 13.375C97.0323 13.9297 96.5946 14.3587 96.0399 14.662C95.4853 14.9653 94.8699 15.117 94.1939 15.117ZM94.1939 14.077C94.6186 14.077 95.0173 13.9773 95.3899 13.778C95.7626 13.5787 96.0616 13.2797 96.2869 12.881C96.5209 12.4823 96.6379 11.997 96.6379 11.425C96.6379 10.853 96.5253 10.3677 96.2999 9.969C96.0746 9.57033 95.7799 9.27567 95.4159 9.085C95.0519 8.88567 94.6576 8.786 94.2329 8.786C93.7996 8.786 93.4009 8.88567 93.0369 9.085C92.6816 9.27567 92.3956 9.57033 92.1789 9.969C91.9623 10.3677 91.8539 10.853 91.8539 11.425C91.8539 12.0057 91.9579 12.4953 92.1659 12.894C92.3826 13.2927 92.6686 13.5917 93.0239 13.791C93.3793 13.9817 93.7693 14.077 94.1939 14.077ZM100.585 9.033C100.793 8.62567 101.088 8.30933 101.469 8.084C101.859 7.85867 102.332 7.746 102.886 7.746V8.968H102.574C101.248 8.968 100.585 9.68733 100.585 11.126V15H99.4024V7.876H100.585V9.033ZM111.254 7.746C111.791 7.746 112.276 7.863 112.71 8.097C113.143 8.32233 113.481 8.66467 113.724 9.124C113.975 9.58333 114.101 10.1423 114.101 10.801V15H112.931V10.97C112.931 10.2593 112.753 9.71767 112.398 9.345C112.042 8.96367 111.557 8.773 110.942 8.773C110.318 8.773 109.819 8.968 109.447 9.358C109.083 9.748 108.901 10.3157 108.901 11.061V15H107.718V5.38H108.901V8.89C109.135 8.526 109.455 8.24433 109.863 8.045C110.279 7.84567 110.742 7.746 111.254 7.746ZM115.591 11.412C115.591 10.684 115.739 10.047 116.033 9.501C116.328 8.94633 116.731 8.51733 117.242 8.214C117.762 7.91067 118.339 7.759 118.971 7.759C119.595 7.759 120.137 7.89333 120.596 8.162C121.056 8.43067 121.398 8.76867 121.623 9.176V7.876H122.819V15H121.623V13.674C121.389 14.09 121.038 14.4367 120.57 14.714C120.111 14.9827 119.574 15.117 118.958 15.117C118.326 15.117 117.754 14.961 117.242 14.649C116.731 14.337 116.328 13.8993 116.033 13.336C115.739 12.7727 115.591 12.1313 115.591 11.412ZM121.623 11.425C121.623 10.8877 121.515 10.4197 121.298 10.021C121.082 9.62233 120.787 9.319 120.414 9.111C120.05 8.89433 119.647 8.786 119.205 8.786C118.763 8.786 118.36 8.89 117.996 9.098C117.632 9.306 117.342 9.60933 117.125 10.008C116.909 10.4067 116.8 10.8747 116.8 11.412C116.8 11.958 116.909 12.4347 117.125 12.842C117.342 13.2407 117.632 13.5483 117.996 13.765C118.36 13.973 118.763 14.077 119.205 14.077C119.647 14.077 120.05 13.973 120.414 13.765C120.787 13.5483 121.082 13.2407 121.298 12.842C121.515 12.4347 121.623 11.9623 121.623 11.425ZM128.289 7.746C129.156 7.746 129.858 8.01033 130.395 8.539C130.933 9.059 131.201 9.813 131.201 10.801V15H130.031V10.97C130.031 10.2593 129.854 9.71767 129.498 9.345C129.143 8.96367 128.658 8.773 128.042 8.773C127.418 8.773 126.92 8.968 126.547 9.358C126.183 9.748 126.001 10.3157 126.001 11.061V15H124.818V7.876H126.001V8.89C126.235 8.526 126.552 8.24433 126.95 8.045C127.358 7.84567 127.804 7.746 128.289 7.746ZM132.692 11.412C132.692 10.684 132.839 10.047 133.134 9.501C133.428 8.94633 133.831 8.51733 134.343 8.214C134.863 7.91067 135.443 7.759 136.085 7.759C136.639 7.759 137.155 7.889 137.632 8.149C138.108 8.40033 138.472 8.734 138.724 9.15V5.38H139.92V15H138.724V13.661C138.49 14.0857 138.143 14.4367 137.684 14.714C137.224 14.9827 136.687 15.117 136.072 15.117C135.439 15.117 134.863 14.961 134.343 14.649C133.831 14.337 133.428 13.8993 133.134 13.336C132.839 12.7727 132.692 12.1313 132.692 11.412ZM138.724 11.425C138.724 10.8877 138.615 10.4197 138.399 10.021C138.182 9.62233 137.887 9.319 137.515 9.111C137.151 8.89433 136.748 8.786 136.306 8.786C135.864 8.786 135.461 8.89 135.097 9.098C134.733 9.306 134.442 9.60933 134.226 10.008C134.009 10.4067 133.901 10.8747 133.901 11.412C133.901 11.958 134.009 12.4347 134.226 12.842C134.442 13.2407 134.733 13.5483 135.097 13.765C135.461 13.973 135.864 14.077 136.306 14.077C136.748 14.077 137.151 13.973 137.515 13.765C137.887 13.5483 138.182 13.2407 138.399 12.842C138.615 12.4347 138.724 11.9623 138.724 11.425ZM143.102 9.202C143.345 8.77733 143.7 8.43067 144.168 8.162C144.636 7.89333 145.169 7.759 145.767 7.759C146.408 7.759 146.985 7.91067 147.496 8.214C148.007 8.51733 148.41 8.94633 148.705 9.501C149 10.047 149.147 10.684 149.147 11.412C149.147 12.1313 149 12.7727 148.705 13.336C148.41 13.8993 148.003 14.337 147.483 14.649C146.972 14.961 146.4 15.117 145.767 15.117C145.152 15.117 144.61 14.9827 144.142 14.714C143.683 14.4453 143.336 14.103 143.102 13.687V15H141.919V5.38H143.102V9.202ZM147.938 11.412C147.938 10.8747 147.83 10.4067 147.613 10.008C147.396 9.60933 147.102 9.306 146.729 9.098C146.365 8.89 145.962 8.786 145.52 8.786C145.087 8.786 144.684 8.89433 144.311 9.111C143.947 9.319 143.652 9.62667 143.427 10.034C143.21 10.4327 143.102 10.8963 143.102 11.425C143.102 11.9623 143.21 12.4347 143.427 12.842C143.652 13.2407 143.947 13.5483 144.311 13.765C144.684 13.973 145.087 14.077 145.52 14.077C145.962 14.077 146.365 13.973 146.729 13.765C147.102 13.5483 147.396 13.2407 147.613 12.842C147.83 12.4347 147.938 11.958 147.938 11.412ZM150.262 11.412C150.262 10.684 150.409 10.047 150.704 9.501C150.999 8.94633 151.402 8.51733 151.913 8.214C152.433 7.91067 153.009 7.759 153.642 7.759C154.266 7.759 154.808 7.89333 155.267 8.162C155.726 8.43067 156.069 8.76867 156.294 9.176V7.876H157.49V15H156.294V13.674C156.06 14.09 155.709 14.4367 155.241 14.714C154.782 14.9827 154.244 15.117 153.629 15.117C152.996 15.117 152.424 14.961 151.913 14.649C151.402 14.337 150.999 13.8993 150.704 13.336C150.409 12.7727 150.262 12.1313 150.262 11.412ZM156.294 11.425C156.294 10.8877 156.186 10.4197 155.969 10.021C155.752 9.62233 155.458 9.319 155.085 9.111C154.721 8.89433 154.318 8.786 153.876 8.786C153.434 8.786 153.031 8.89 152.667 9.098C152.303 9.306 152.013 9.60933 151.796 10.008C151.579 10.4067 151.471 10.8747 151.471 11.412C151.471 11.958 151.579 12.4347 151.796 12.842C152.013 13.2407 152.303 13.5483 152.667 13.765C153.031 13.973 153.434 14.077 153.876 14.077C154.318 14.077 154.721 13.973 155.085 13.765C155.458 13.5483 155.752 13.2407 155.969 12.842C156.186 12.4347 156.294 11.9623 156.294 11.425ZM162.427 7.759C163.043 7.759 163.58 7.89333 164.039 8.162C164.507 8.43067 164.854 8.76867 165.079 9.176V7.876H166.275V15.156C166.275 15.806 166.137 16.3823 165.859 16.885C165.582 17.3963 165.183 17.795 164.663 18.081C164.152 18.367 163.554 18.51 162.869 18.51C161.933 18.51 161.153 18.289 160.529 17.847C159.905 17.405 159.537 16.8027 159.424 16.04H160.594C160.724 16.4733 160.993 16.82 161.4 17.08C161.808 17.3487 162.297 17.483 162.869 17.483C163.519 17.483 164.048 17.2793 164.455 16.872C164.871 16.4647 165.079 15.8927 165.079 15.156V13.661C164.845 14.077 164.499 14.4237 164.039 14.701C163.58 14.9783 163.043 15.117 162.427 15.117C161.795 15.117 161.218 14.961 160.698 14.649C160.187 14.337 159.784 13.8993 159.489 13.336C159.195 12.7727 159.047 12.1313 159.047 11.412C159.047 10.684 159.195 10.047 159.489 9.501C159.784 8.94633 160.187 8.51733 160.698 8.214C161.218 7.91067 161.795 7.759 162.427 7.759ZM165.079 11.425C165.079 10.8877 164.971 10.4197 164.754 10.021C164.538 9.62233 164.243 9.319 163.87 9.111C163.506 8.89433 163.103 8.786 162.661 8.786C162.219 8.786 161.816 8.89 161.452 9.098C161.088 9.306 160.798 9.60933 160.581 10.008C160.365 10.4067 160.256 10.8747 160.256 11.412C160.256 11.958 160.365 12.4347 160.581 12.842C160.798 13.2407 161.088 13.5483 161.452 13.765C161.816 13.973 162.219 14.077 162.661 14.077C163.103 14.077 163.506 13.973 163.87 13.765C164.243 13.5483 164.538 13.2407 164.754 12.842C164.971 12.4347 165.079 11.9623 165.079 11.425Z" fill="#949494"/>
<g clip-path="url(#clip0_1_170)">
<rect x="0.5" y="30.5" width="62" height="29" rx="4.5" fill="#F2F7FF"/>
<rect x="0.5" y="30.5" width="62" height="29" rx="4.5" stroke="#4C82EF"/>
<path d="M10.481 45.463C10.481 44.579 10.6847 43.786 11.092 43.084C11.508 42.382 12.067 41.836 12.769 41.446C13.4797 41.0473 14.2553 40.848 15.096 40.848C16.058 40.848 16.9117 41.0863 17.657 41.563C18.411 42.031 18.957 42.6983 19.295 43.565H17.514C17.28 43.0883 16.955 42.733 16.539 42.499C16.123 42.265 15.642 42.148 15.096 42.148C14.498 42.148 13.965 42.2823 13.497 42.551C13.029 42.8197 12.6607 43.2053 12.392 43.708C12.132 44.2107 12.002 44.7957 12.002 45.463C12.002 46.1303 12.132 46.7153 12.392 47.218C12.6607 47.7207 13.029 48.1107 13.497 48.388C13.965 48.6567 14.498 48.791 15.096 48.791C15.642 48.791 16.123 48.674 16.539 48.44C16.955 48.206 17.28 47.8507 17.514 47.374H19.295C18.957 48.2407 18.411 48.908 17.657 49.376C16.9117 49.844 16.058 50.078 15.096 50.078C14.2467 50.078 13.471 49.883 12.769 49.493C12.067 49.0943 11.508 48.544 11.092 47.842C10.6847 47.14 10.481 46.347 10.481 45.463ZM22.5117 40.38V50H21.0297V40.38H22.5117ZM30.9444 42.837V50H29.4624V49.155C29.2284 49.4497 28.9208 49.6837 28.5394 49.857C28.1668 50.0217 27.7681 50.104 27.3434 50.104C26.7801 50.104 26.2731 49.987 25.8224 49.753C25.3804 49.519 25.0294 49.1723 24.7694 48.713C24.5181 48.2537 24.3924 47.699 24.3924 47.049V42.837H25.8614V46.828C25.8614 47.4693 26.0218 47.9633 26.3424 48.31C26.6631 48.648 27.1008 48.817 27.6554 48.817C28.2101 48.817 28.6478 48.648 28.9684 48.31C29.2978 47.9633 29.4624 47.4693 29.4624 46.828V42.837H30.9444ZM34.6288 44.046V48.011C34.6288 48.2797 34.6895 48.4747 34.8108 48.596C34.9408 48.7087 35.1575 48.765 35.4608 48.765H36.3708V50H35.2008C34.5335 50 34.0221 49.844 33.6668 49.532C33.3115 49.22 33.1338 48.713 33.1338 48.011V44.046H32.2888V42.837H33.1338V41.056H34.6288V42.837H36.3708V44.046H34.6288ZM37.2427 46.412C37.2427 45.6753 37.3901 45.0297 37.6847 44.475C37.9881 43.9117 38.4041 43.4783 38.9327 43.175C39.4614 42.8717 40.0681 42.72 40.7527 42.72C41.6194 42.72 42.3344 42.928 42.8977 43.344C43.4697 43.7513 43.8554 44.3363 44.0547 45.099H42.4557C42.3257 44.7437 42.1177 44.4663 41.8317 44.267C41.5457 44.0677 41.1861 43.968 40.7527 43.968C40.1461 43.968 39.6607 44.1847 39.2967 44.618C38.9414 45.0427 38.7637 45.6407 38.7637 46.412C38.7637 47.1833 38.9414 47.7857 39.2967 48.219C39.6607 48.6523 40.1461 48.869 40.7527 48.869C41.6107 48.869 42.1784 48.492 42.4557 47.738H44.0547C43.8467 48.466 43.4567 49.0467 42.8847 49.48C42.3127 49.9047 41.6021 50.117 40.7527 50.117C40.0681 50.117 39.4614 49.9653 38.9327 49.662C38.4041 49.35 37.9881 48.9167 37.6847 48.362C37.3901 47.7987 37.2427 47.1487 37.2427 46.412ZM49.2366 42.72C49.7826 42.72 50.268 42.837 50.6926 43.071C51.126 43.305 51.464 43.6517 51.7066 44.111C51.958 44.5703 52.0836 45.125 52.0836 45.775V50H50.6146V45.996C50.6146 45.3547 50.4543 44.865 50.1336 44.527C49.813 44.1803 49.3753 44.007 48.8206 44.007C48.266 44.007 47.824 44.1803 47.4946 44.527C47.174 44.865 47.0136 45.3547 47.0136 45.996V50H45.5316V40.38H47.0136V43.669C47.265 43.3657 47.5813 43.1317 47.9626 42.967C48.3526 42.8023 48.7773 42.72 49.2366 42.72Z" fill="#4C82EF"/>
<rect x="73.5" y="30.5" width="99" height="29" rx="4.5" fill="#F2F7FF"/>
<rect x="73.5" y="30.5" width="99" height="29" rx="4.5" stroke="#4C82EF"/>
<path d="M89.292 40.965V42.174H85.457V44.839H88.447V46.048H85.457V50H83.975V40.965H89.292ZM90.1714 46.386C90.1714 45.6667 90.3188 45.0297 90.6134 44.475C90.9168 43.9203 91.3241 43.4913 91.8354 43.188C92.3554 42.876 92.9274 42.72 93.5514 42.72C94.1148 42.72 94.6044 42.8327 95.0204 43.058C95.4451 43.2747 95.7831 43.5477 96.0344 43.877V42.837H97.5294V50H96.0344V48.934C95.7831 49.272 95.4408 49.5537 95.0074 49.779C94.5741 50.0043 94.0801 50.117 93.5254 50.117C92.9101 50.117 92.3468 49.961 91.8354 49.649C91.3241 49.3283 90.9168 48.8863 90.6134 48.323C90.3188 47.751 90.1714 47.1053 90.1714 46.386ZM96.0344 46.412C96.0344 45.918 95.9304 45.489 95.7224 45.125C95.5231 44.761 95.2588 44.4837 94.9294 44.293C94.6001 44.1023 94.2448 44.007 93.8634 44.007C93.4821 44.007 93.1268 44.1023 92.7974 44.293C92.4681 44.475 92.1994 44.748 91.9914 45.112C91.7921 45.4673 91.6924 45.892 91.6924 46.386C91.6924 46.88 91.7921 47.3133 91.9914 47.686C92.1994 48.0587 92.4681 48.3447 92.7974 48.544C93.1354 48.7347 93.4908 48.83 93.8634 48.83C94.2448 48.83 94.6001 48.7347 94.9294 48.544C95.2588 48.3533 95.5231 48.076 95.7224 47.712C95.9304 47.3393 96.0344 46.906 96.0344 46.412ZM100.958 43.903C101.209 43.5563 101.552 43.2747 101.985 43.058C102.427 42.8327 102.917 42.72 103.454 42.72C104.087 42.72 104.659 42.8717 105.17 43.175C105.681 43.4783 106.084 43.9117 106.379 44.475C106.674 45.0297 106.821 45.6667 106.821 46.386C106.821 47.1053 106.674 47.751 106.379 48.323C106.084 48.8863 105.677 49.3283 105.157 49.649C104.646 49.961 104.078 50.117 103.454 50.117C102.899 50.117 102.405 50.0087 101.972 49.792C101.547 49.5753 101.209 49.298 100.958 48.96V50H99.476V40.38H100.958V43.903ZM105.313 46.386C105.313 45.892 105.209 45.4673 105.001 45.112C104.802 44.748 104.533 44.475 104.195 44.293C103.866 44.1023 103.51 44.007 103.129 44.007C102.756 44.007 102.401 44.1023 102.063 44.293C101.734 44.4837 101.465 44.761 101.257 45.125C101.058 45.489 100.958 45.918 100.958 46.412C100.958 46.906 101.058 47.3393 101.257 47.712C101.465 48.076 101.734 48.3533 102.063 48.544C102.401 48.7347 102.756 48.83 103.129 48.83C103.51 48.83 103.866 48.7347 104.195 48.544C104.533 48.3447 104.802 48.0587 105.001 47.686C105.209 47.3133 105.313 46.88 105.313 46.386ZM109.769 43.877C109.985 43.513 110.271 43.2313 110.627 43.032C110.991 42.824 111.42 42.72 111.914 42.72V44.254H111.537C110.956 44.254 110.514 44.4013 110.211 44.696C109.916 44.9907 109.769 45.502 109.769 46.23V50H108.287V42.837H109.769V43.877ZM114.03 41.888C113.761 41.888 113.536 41.797 113.354 41.615C113.172 41.433 113.081 41.2077 113.081 40.939C113.081 40.6703 113.172 40.445 113.354 40.263C113.536 40.081 113.761 39.99 114.03 39.99C114.29 39.99 114.511 40.081 114.693 40.263C114.875 40.445 114.966 40.6703 114.966 40.939C114.966 41.2077 114.875 41.433 114.693 41.615C114.511 41.797 114.29 41.888 114.03 41.888ZM114.758 42.837V50H113.276V42.837H114.758ZM116.21 46.412C116.21 45.6753 116.357 45.0297 116.652 44.475C116.955 43.9117 117.371 43.4783 117.9 43.175C118.428 42.8717 119.035 42.72 119.72 42.72C120.586 42.72 121.301 42.928 121.865 43.344C122.437 43.7513 122.822 44.3363 123.022 45.099H121.423C121.293 44.7437 121.085 44.4663 120.799 44.267C120.513 44.0677 120.153 43.968 119.72 43.968C119.113 43.968 118.628 44.1847 118.264 44.618C117.908 45.0427 117.731 45.6407 117.731 46.412C117.731 47.1833 117.908 47.7857 118.264 48.219C118.628 48.6523 119.113 48.869 119.72 48.869C120.578 48.869 121.145 48.492 121.423 47.738H123.022C122.814 48.466 122.424 49.0467 121.852 49.48C121.28 49.9047 120.569 50.117 119.72 50.117C119.035 50.117 118.428 49.9653 117.9 49.662C117.371 49.35 116.955 48.9167 116.652 48.362C116.357 47.7987 116.21 47.1487 116.21 46.412ZM129.357 40.38V50H127.875V40.38H129.357ZM132.057 41.888C131.788 41.888 131.563 41.797 131.381 41.615C131.199 41.433 131.108 41.2077 131.108 40.939C131.108 40.6703 131.199 40.445 131.381 40.263C131.563 40.081 131.788 39.99 132.057 39.99C132.317 39.99 132.538 40.081 132.72 40.263C132.902 40.445 132.993 40.6703 132.993 40.939C132.993 41.2077 132.902 41.433 132.72 41.615C132.538 41.797 132.317 41.888 132.057 41.888ZM132.785 42.837V50H131.303V42.837H132.785ZM138.345 42.72C138.908 42.72 139.411 42.837 139.853 43.071C140.304 43.305 140.655 43.6517 140.906 44.111C141.157 44.5703 141.283 45.125 141.283 45.775V50H139.814V45.996C139.814 45.3547 139.654 44.865 139.333 44.527C139.012 44.1803 138.575 44.007 138.02 44.007C137.465 44.007 137.023 44.1803 136.694 44.527C136.373 44.865 136.213 45.3547 136.213 45.996V50H134.731V42.837H136.213V43.656C136.456 43.3613 136.763 43.1317 137.136 42.967C137.517 42.8023 137.92 42.72 138.345 42.72ZM143.927 41.888C143.659 41.888 143.433 41.797 143.251 41.615C143.069 41.433 142.978 41.2077 142.978 40.939C142.978 40.6703 143.069 40.445 143.251 40.263C143.433 40.081 143.659 39.99 143.927 39.99C144.187 39.99 144.408 40.081 144.59 40.263C144.772 40.445 144.863 40.6703 144.863 40.939C144.863 41.2077 144.772 41.433 144.59 41.615C144.408 41.797 144.187 41.888 143.927 41.888ZM144.655 42.837V50H143.173V42.837H144.655ZM150.215 42.72C150.778 42.72 151.281 42.837 151.723 43.071C152.174 43.305 152.525 43.6517 152.776 44.111C153.027 44.5703 153.153 45.125 153.153 45.775V50H151.684V45.996C151.684 45.3547 151.524 44.865 151.203 44.527C150.882 44.1803 150.445 44.007 149.89 44.007C149.335 44.007 148.893 44.1803 148.564 44.527C148.243 44.865 148.083 45.3547 148.083 45.996V50H146.601V42.837H148.083V43.656C148.326 43.3613 148.633 43.1317 149.006 42.967C149.387 42.8023 149.79 42.72 150.215 42.72ZM157.929 42.72C158.484 42.72 158.974 42.8327 159.398 43.058C159.832 43.2747 160.17 43.5477 160.412 43.877V42.837H161.907V50.117C161.907 50.7757 161.769 51.3607 161.491 51.872C161.214 52.392 160.811 52.7993 160.282 53.094C159.762 53.3887 159.138 53.536 158.41 53.536C157.44 53.536 156.634 53.3063 155.992 52.847C155.351 52.3963 154.987 51.781 154.9 51.001H156.369C156.482 51.3737 156.72 51.6727 157.084 51.898C157.457 52.132 157.899 52.249 158.41 52.249C159.008 52.249 159.489 52.067 159.853 51.703C160.226 51.339 160.412 50.8103 160.412 50.117V48.921C160.161 49.259 159.819 49.545 159.385 49.779C158.961 50.0043 158.475 50.117 157.929 50.117C157.305 50.117 156.733 49.961 156.213 49.649C155.702 49.3283 155.295 48.8863 154.991 48.323C154.697 47.751 154.549 47.1053 154.549 46.386C154.549 45.6667 154.697 45.0297 154.991 44.475C155.295 43.9203 155.702 43.4913 156.213 43.188C156.733 42.876 157.305 42.72 157.929 42.72ZM160.412 46.412C160.412 45.918 160.308 45.489 160.1 45.125C159.901 44.761 159.637 44.4837 159.307 44.293C158.978 44.1023 158.623 44.007 158.241 44.007C157.86 44.007 157.505 44.1023 157.175 44.293C156.846 44.475 156.577 44.748 156.369 45.112C156.17 45.4673 156.07 45.892 156.07 46.386C156.07 46.88 156.17 47.3133 156.369 47.686C156.577 48.0587 156.846 48.3447 157.175 48.544C157.513 48.7347 157.869 48.83 158.241 48.83C158.623 48.83 158.978 48.7347 159.307 48.544C159.637 48.3533 159.901 48.076 160.1 47.712C160.308 47.3393 160.412 46.906 160.412 46.412Z" fill="#4C82EF"/>
<rect x="183.5" y="30.5" width="62" height="29" rx="4.5" fill="#F2F7FF"/>
<rect x="183.5" y="30.5" width="62" height="29" rx="4.5" stroke="#4C82EF"/>
<path d="M198.811 45.359C199.296 45.4457 199.708 45.7013 200.046 46.126C200.384 46.5507 200.553 47.0317 200.553 47.569C200.553 48.0283 200.432 48.4443 200.189 48.817C199.955 49.181 199.613 49.4713 199.162 49.688C198.711 49.896 198.187 50 197.589 50H193.975V40.965H197.42C198.035 40.965 198.564 41.069 199.006 41.277C199.448 41.485 199.782 41.7667 200.007 42.122C200.232 42.4687 200.345 42.8587 200.345 43.292C200.345 43.812 200.206 44.2453 199.929 44.592C199.652 44.9387 199.279 45.1943 198.811 45.359ZM195.457 44.761H197.29C197.775 44.761 198.152 44.6527 198.421 44.436C198.698 44.2107 198.837 43.89 198.837 43.474C198.837 43.0667 198.698 42.7503 198.421 42.525C198.152 42.291 197.775 42.174 197.29 42.174H195.457V44.761ZM197.459 48.791C197.962 48.791 198.356 48.6697 198.642 48.427C198.928 48.1843 199.071 47.8463 199.071 47.413C199.071 46.971 198.919 46.62 198.616 46.36C198.313 46.1 197.91 45.97 197.407 45.97H195.457V48.791H197.459ZM201.669 46.386C201.669 45.6667 201.817 45.0297 202.111 44.475C202.415 43.9203 202.822 43.4913 203.333 43.188C203.853 42.876 204.425 42.72 205.049 42.72C205.613 42.72 206.102 42.8327 206.518 43.058C206.943 43.2747 207.281 43.5477 207.532 43.877V42.837H209.027V50H207.532V48.934C207.281 49.272 206.939 49.5537 206.505 49.779C206.072 50.0043 205.578 50.117 205.023 50.117C204.408 50.117 203.845 49.961 203.333 49.649C202.822 49.3283 202.415 48.8863 202.111 48.323C201.817 47.751 201.669 47.1053 201.669 46.386ZM207.532 46.412C207.532 45.918 207.428 45.489 207.22 45.125C207.021 44.761 206.757 44.4837 206.427 44.293C206.098 44.1023 205.743 44.007 205.361 44.007C204.98 44.007 204.625 44.1023 204.295 44.293C203.966 44.475 203.697 44.748 203.489 45.112C203.29 45.4673 203.19 45.892 203.19 46.386C203.19 46.88 203.29 47.3133 203.489 47.686C203.697 48.0587 203.966 48.3447 204.295 48.544C204.633 48.7347 204.989 48.83 205.361 48.83C205.743 48.83 206.098 48.7347 206.427 48.544C206.757 48.3533 207.021 48.076 207.22 47.712C207.428 47.3393 207.532 46.906 207.532 46.412ZM213.86 42.72C214.415 42.72 214.904 42.8327 215.329 43.058C215.762 43.2747 216.1 43.5477 216.343 43.877V42.837H217.838V50.117C217.838 50.7757 217.699 51.3607 217.422 51.872C217.145 52.392 216.742 52.7993 216.213 53.094C215.693 53.3887 215.069 53.536 214.341 53.536C213.37 53.536 212.564 53.3063 211.923 52.847C211.282 52.3963 210.918 51.781 210.831 51.001H212.3C212.413 51.3737 212.651 51.6727 213.015 51.898C213.388 52.132 213.83 52.249 214.341 52.249C214.939 52.249 215.42 52.067 215.784 51.703C216.157 51.339 216.343 50.8103 216.343 50.117V48.921C216.092 49.259 215.749 49.545 215.316 49.779C214.891 50.0043 214.406 50.117 213.86 50.117C213.236 50.117 212.664 49.961 212.144 49.649C211.633 49.3283 211.225 48.8863 210.922 48.323C210.627 47.751 210.48 47.1053 210.48 46.386C210.48 45.6667 210.627 45.0297 210.922 44.475C211.225 43.9203 211.633 43.4913 212.144 43.188C212.664 42.876 213.236 42.72 213.86 42.72ZM216.343 46.412C216.343 45.918 216.239 45.489 216.031 45.125C215.832 44.761 215.567 44.4837 215.238 44.293C214.909 44.1023 214.553 44.007 214.172 44.007C213.791 44.007 213.435 44.1023 213.106 44.293C212.777 44.475 212.508 44.748 212.3 45.112C212.101 45.4673 212.001 45.892 212.001 46.386C212.001 46.88 212.101 47.3133 212.3 47.686C212.508 48.0587 212.777 48.3447 213.106 48.544C213.444 48.7347 213.799 48.83 214.172 48.83C214.553 48.83 214.909 48.7347 215.238 48.544C215.567 48.3533 215.832 48.076 216.031 47.712C216.239 47.3393 216.343 46.906 216.343 46.412ZM222.671 42.72C223.225 42.72 223.715 42.8327 224.14 43.058C224.573 43.2747 224.911 43.5477 225.154 43.877V42.837H226.649V50.117C226.649 50.7757 226.51 51.3607 226.233 51.872C225.955 52.392 225.552 52.7993 225.024 53.094C224.504 53.3887 223.88 53.536 223.152 53.536C222.181 53.536 221.375 53.3063 220.734 52.847C220.092 52.3963 219.728 51.781 219.642 51.001H221.111C221.223 51.3737 221.462 51.6727 221.826 51.898C222.198 52.132 222.64 52.249 223.152 52.249C223.75 52.249 224.231 52.067 224.595 51.703C224.967 51.339 225.154 50.8103 225.154 50.117V48.921C224.902 49.259 224.56 49.545 224.127 49.779C223.702 50.0043 223.217 50.117 222.671 50.117C222.047 50.117 221.475 49.961 220.955 49.649C220.443 49.3283 220.036 48.8863 219.733 48.323C219.438 47.751 219.291 47.1053 219.291 46.386C219.291 45.6667 219.438 45.0297 219.733 44.475C220.036 43.9203 220.443 43.4913 220.955 43.188C221.475 42.876 222.047 42.72 222.671 42.72ZM225.154 46.412C225.154 45.918 225.05 45.489 224.842 45.125C224.642 44.761 224.378 44.4837 224.049 44.293C223.719 44.1023 223.364 44.007 222.983 44.007C222.601 44.007 222.246 44.1023 221.917 44.293C221.587 44.475 221.319 44.748 221.111 45.112C220.911 45.4673 220.812 45.892 220.812 46.386C220.812 46.88 220.911 47.3133 221.111 47.686C221.319 48.0587 221.587 48.3447 221.917 48.544C222.255 48.7347 222.61 48.83 222.983 48.83C223.364 48.83 223.719 48.7347 224.049 48.544C224.378 48.3533 224.642 48.076 224.842 47.712C225.05 47.3393 225.154 46.906 225.154 46.412ZM229.349 41.888C229.08 41.888 228.855 41.797 228.673 41.615C228.491 41.433 228.4 41.2077 228.4 40.939C228.4 40.6703 228.491 40.445 228.673 40.263C228.855 40.081 229.08 39.99 229.349 39.99C229.609 39.99 229.83 40.081 230.012 40.263C230.194 40.445 230.285 40.6703 230.285 40.939C230.285 41.2077 230.194 41.433 230.012 41.615C229.83 41.797 229.609 41.888 229.349 41.888ZM230.077 42.837V50H228.595V42.837H230.077ZM233.752 44.046V48.011C233.752 48.2797 233.813 48.4747 233.934 48.596C234.064 48.7087 234.281 48.765 234.584 48.765H235.494V50H234.324C233.657 50 233.145 49.844 232.79 49.532C232.435 49.22 232.257 48.713 232.257 48.011V44.046H231.412V42.837H232.257V41.056H233.752V42.837H235.494V44.046H233.752Z" fill="#4C82EF"/>
<rect x="256.5" y="30.5" width="149" height="29" rx="4.5" fill="#F2F7FF"/>
<rect x="256.5" y="30.5" width="149" height="29" rx="4.5" stroke="#4C82EF"/>
<path d="M276.491 40.965V50H275.009V43.812L272.253 50H271.226L268.457 43.812V50H266.975V40.965H268.574L271.746 48.05L274.905 40.965H276.491ZM284.926 42.837V50H283.444V49.155C283.21 49.4497 282.902 49.6837 282.521 49.857C282.148 50.0217 281.75 50.104 281.325 50.104C280.762 50.104 280.255 49.987 279.804 49.753C279.362 49.519 279.011 49.1723 278.751 48.713C278.5 48.2537 278.374 47.699 278.374 47.049V42.837H279.843V46.828C279.843 47.4693 280.003 47.9633 280.324 48.31C280.645 48.648 281.082 48.817 281.637 48.817C282.192 48.817 282.629 48.648 282.95 48.31C283.279 47.9633 283.444 47.4693 283.444 46.828V42.837H284.926ZM288.363 40.38V50H286.881V40.38H288.363ZM292.038 44.046V48.011C292.038 48.2797 292.099 48.4747 292.22 48.596C292.35 48.7087 292.567 48.765 292.87 48.765H293.78V50H292.61C291.943 50 291.431 49.844 291.076 49.532C290.721 49.22 290.543 48.713 290.543 48.011V44.046H289.698V42.837H290.543V41.056H292.038V42.837H293.78V44.046H292.038ZM295.9 41.888C295.631 41.888 295.406 41.797 295.224 41.615C295.042 41.433 294.951 41.2077 294.951 40.939C294.951 40.6703 295.042 40.445 295.224 40.263C295.406 40.081 295.631 39.99 295.9 39.99C296.16 39.99 296.381 40.081 296.563 40.263C296.745 40.445 296.836 40.6703 296.836 40.939C296.836 41.2077 296.745 41.433 296.563 41.615C296.381 41.797 296.16 41.888 295.9 41.888ZM296.628 42.837V50H295.146V42.837H296.628ZM301.457 45.463C301.457 44.579 301.66 43.786 302.068 43.084C302.484 42.382 303.043 41.836 303.745 41.446C304.455 41.0473 305.231 40.848 306.072 40.848C307.034 40.848 307.887 41.0863 308.633 41.563C309.387 42.031 309.933 42.6983 310.271 43.565H308.49C308.256 43.0883 307.931 42.733 307.515 42.499C307.099 42.265 306.618 42.148 306.072 42.148C305.474 42.148 304.941 42.2823 304.473 42.551C304.005 42.8197 303.636 43.2053 303.368 43.708C303.108 44.2107 302.978 44.7957 302.978 45.463C302.978 46.1303 303.108 46.7153 303.368 47.218C303.636 47.7207 304.005 48.1107 304.473 48.388C304.941 48.6567 305.474 48.791 306.072 48.791C306.618 48.791 307.099 48.674 307.515 48.44C307.931 48.206 308.256 47.8507 308.49 47.374H310.271C309.933 48.2407 309.387 48.908 308.633 49.376C307.887 49.844 307.034 50.078 306.072 50.078C305.222 50.078 304.447 49.883 303.745 49.493C303.043 49.0943 302.484 48.544 302.068 47.842C301.66 47.14 301.457 46.347 301.457 45.463ZM315.112 50.117C314.436 50.117 313.825 49.9653 313.279 49.662C312.733 49.35 312.304 48.9167 311.992 48.362C311.68 47.7987 311.524 47.1487 311.524 46.412C311.524 45.684 311.685 45.0383 312.005 44.475C312.326 43.9117 312.764 43.4783 313.318 43.175C313.873 42.8717 314.493 42.72 315.177 42.72C315.862 42.72 316.482 42.8717 317.036 43.175C317.591 43.4783 318.029 43.9117 318.349 44.475C318.67 45.0383 318.83 45.684 318.83 46.412C318.83 47.14 318.666 47.7857 318.336 48.349C318.007 48.9123 317.556 49.35 316.984 49.662C316.421 49.9653 315.797 50.117 315.112 50.117ZM315.112 48.83C315.494 48.83 315.849 48.739 316.178 48.557C316.516 48.375 316.789 48.102 316.997 47.738C317.205 47.374 317.309 46.932 317.309 46.412C317.309 45.892 317.21 45.4543 317.01 45.099C316.811 44.735 316.547 44.462 316.217 44.28C315.888 44.098 315.533 44.007 315.151 44.007C314.77 44.007 314.415 44.098 314.085 44.28C313.765 44.462 313.509 44.735 313.318 45.099C313.128 45.4543 313.032 45.892 313.032 46.412C313.032 47.1833 313.227 47.7813 313.617 48.206C314.016 48.622 314.514 48.83 315.112 48.83ZM328.966 42.72C329.53 42.72 330.032 42.837 330.474 43.071C330.925 43.305 331.276 43.6517 331.527 44.111C331.787 44.5703 331.917 45.125 331.917 45.775V50H330.448V45.996C330.448 45.3547 330.288 44.865 329.967 44.527C329.647 44.1803 329.209 44.007 328.654 44.007C328.1 44.007 327.658 44.1803 327.328 44.527C327.008 44.865 326.847 45.3547 326.847 45.996V50H325.378V45.996C325.378 45.3547 325.218 44.865 324.897 44.527C324.577 44.1803 324.139 44.007 323.584 44.007C323.03 44.007 322.588 44.1803 322.258 44.527C321.938 44.865 321.777 45.3547 321.777 45.996V50H320.295V42.837H321.777V43.656C322.02 43.3613 322.328 43.1317 322.7 42.967C323.073 42.8023 323.472 42.72 323.896 42.72C324.468 42.72 324.98 42.8413 325.43 43.084C325.881 43.3267 326.228 43.6777 326.47 44.137C326.687 43.7037 327.025 43.3613 327.484 43.11C327.944 42.85 328.438 42.72 328.966 42.72ZM335.285 43.89C335.536 43.5607 335.879 43.2833 336.312 43.058C336.745 42.8327 337.235 42.72 337.781 42.72C338.405 42.72 338.973 42.876 339.484 43.188C340.004 43.4913 340.411 43.9203 340.706 44.475C341.001 45.0297 341.148 45.6667 341.148 46.386C341.148 47.1053 341.001 47.751 340.706 48.323C340.411 48.8863 340.004 49.3283 339.484 49.649C338.973 49.961 338.405 50.117 337.781 50.117C337.235 50.117 336.75 50.0087 336.325 49.792C335.9 49.5667 335.554 49.2893 335.285 48.96V53.406H333.803V42.837H335.285V43.89ZM339.64 46.386C339.64 45.892 339.536 45.4673 339.328 45.112C339.129 44.748 338.86 44.475 338.522 44.293C338.193 44.1023 337.837 44.007 337.456 44.007C337.083 44.007 336.728 44.1023 336.39 44.293C336.061 44.4837 335.792 44.761 335.584 45.125C335.385 45.489 335.285 45.918 335.285 46.412C335.285 46.906 335.385 47.3393 335.584 47.712C335.792 48.076 336.061 48.3533 336.39 48.544C336.728 48.7347 337.083 48.83 337.456 48.83C337.837 48.83 338.193 48.7347 338.522 48.544C338.86 48.3447 339.129 48.0587 339.328 47.686C339.536 47.3133 339.64 46.88 339.64 46.386ZM342.12 46.386C342.12 45.6667 342.267 45.0297 342.562 44.475C342.865 43.9203 343.272 43.4913 343.784 43.188C344.304 42.876 344.876 42.72 345.5 42.72C346.063 42.72 346.553 42.8327 346.969 43.058C347.393 43.2747 347.731 43.5477 347.983 43.877V42.837H349.478V50H347.983V48.934C347.731 49.272 347.389 49.5537 346.956 49.779C346.522 50.0043 346.028 50.117 345.474 50.117C344.858 50.117 344.295 49.961 343.784 49.649C343.272 49.3283 342.865 48.8863 342.562 48.323C342.267 47.751 342.12 47.1053 342.12 46.386ZM347.983 46.412C347.983 45.918 347.879 45.489 347.671 45.125C347.471 44.761 347.207 44.4837 346.878 44.293C346.548 44.1023 346.193 44.007 345.812 44.007C345.43 44.007 345.075 44.1023 344.746 44.293C344.416 44.475 344.148 44.748 343.94 45.112C343.74 45.4673 343.641 45.892 343.641 46.386C343.641 46.88 343.74 47.3133 343.94 47.686C344.148 48.0587 344.416 48.3447 344.746 48.544C345.084 48.7347 345.439 48.83 345.812 48.83C346.193 48.83 346.548 48.7347 346.878 48.544C347.207 48.3533 347.471 48.076 347.671 47.712C347.879 47.3393 347.983 46.906 347.983 46.412ZM352.906 43.877C353.123 43.513 353.409 43.2313 353.764 43.032C354.128 42.824 354.557 42.72 355.051 42.72V44.254H354.674C354.094 44.254 353.652 44.4013 353.348 44.696C353.054 44.9907 352.906 45.502 352.906 46.23V50H351.424V42.837H352.906V43.877ZM358.142 44.046V48.011C358.142 48.2797 358.203 48.4747 358.324 48.596C358.454 48.7087 358.671 48.765 358.974 48.765H359.884V50H358.714C358.047 50 357.536 49.844 357.18 49.532C356.825 49.22 356.647 48.713 356.647 48.011V44.046H355.802V42.837H356.647V41.056H358.142V42.837H359.884V44.046H358.142ZM369.921 42.72C370.485 42.72 370.987 42.837 371.429 43.071C371.88 43.305 372.231 43.6517 372.482 44.111C372.742 44.5703 372.872 45.125 372.872 45.775V50H371.403V45.996C371.403 45.3547 371.243 44.865 370.922 44.527C370.602 44.1803 370.164 44.007 369.609 44.007C369.055 44.007 368.613 44.1803 368.283 44.527C367.963 44.865 367.802 45.3547 367.802 45.996V50H366.333V45.996C366.333 45.3547 366.173 44.865 365.852 44.527C365.532 44.1803 365.094 44.007 364.539 44.007C363.985 44.007 363.543 44.1803 363.213 44.527C362.893 44.865 362.732 45.3547 362.732 45.996V50H361.25V42.837H362.732V43.656C362.975 43.3613 363.283 43.1317 363.655 42.967C364.028 42.8023 364.427 42.72 364.851 42.72C365.423 42.72 365.935 42.8413 366.385 43.084C366.836 43.3267 367.183 43.6777 367.425 44.137C367.642 43.7037 367.98 43.3613 368.439 43.11C368.899 42.85 369.393 42.72 369.921 42.72ZM381.323 46.243C381.323 46.5117 381.306 46.7543 381.271 46.971H375.798C375.842 47.543 376.054 48.0023 376.435 48.349C376.817 48.6957 377.285 48.869 377.839 48.869C378.637 48.869 379.2 48.5353 379.529 47.868H381.128C380.912 48.5267 380.517 49.0683 379.945 49.493C379.382 49.909 378.68 50.117 377.839 50.117C377.155 50.117 376.539 49.9653 375.993 49.662C375.456 49.35 375.031 48.9167 374.719 48.362C374.416 47.7987 374.264 47.1487 374.264 46.412C374.264 45.6753 374.412 45.0297 374.706 44.475C375.01 43.9117 375.43 43.4783 375.967 43.175C376.513 42.8717 377.137 42.72 377.839 42.72C378.515 42.72 379.118 42.8673 379.646 43.162C380.175 43.4567 380.587 43.8727 380.881 44.41C381.176 44.9387 381.323 45.5497 381.323 46.243ZM379.776 45.775C379.768 45.229 379.573 44.7913 379.191 44.462C378.81 44.1327 378.338 43.968 377.774 43.968C377.263 43.968 376.825 44.1327 376.461 44.462C376.097 44.7827 375.881 45.2203 375.811 45.775H379.776ZM386.396 42.72C386.959 42.72 387.462 42.837 387.904 43.071C388.354 43.305 388.705 43.6517 388.957 44.111C389.208 44.5703 389.334 45.125 389.334 45.775V50H387.865V45.996C387.865 45.3547 387.704 44.865 387.384 44.527C387.063 44.1803 386.625 44.007 386.071 44.007C385.516 44.007 385.074 44.1803 384.745 44.527C384.424 44.865 384.264 45.3547 384.264 45.996V50H382.782V42.837H384.264V43.656C384.506 43.3613 384.814 43.1317 385.187 42.967C385.568 42.8023 385.971 42.72 386.396 42.72ZM392.953 44.046V48.011C392.953 48.2797 393.014 48.4747 393.135 48.596C393.265 48.7087 393.482 48.765 393.785 48.765H394.695V50H393.525C392.858 50 392.346 49.844 391.991 49.532C391.636 49.22 391.458 48.713 391.458 48.011V44.046H390.613V42.837H391.458V41.056H392.953V42.837H394.695V44.046H392.953Z" fill="#4C82EF"/>
</g>
<path d="M315 51L321 45L315 39" stroke="#4C82EF" stroke-width="2" stroke-linecap="round" stroke-linejoin="round"/>
<defs>
<clipPath id="clip0_1_170">
<rect width="301" height="30" fill="white" transform="translate(0 30)"/>
</clipPath>
</defs>
</svg>
